<?xml version="1.0" encoding="UTF-8" standalone="no"?>
<!-- Created with Inkscape (http://www.inkscape.org/) -->

<svg
   xmlns:dc="http://purl.org/dc/elements/1.1/"
   xmlns:cc="http://creativecommons.org/ns#"
   xmlns:rdf="http://www.w3.org/1999/02/22-rdf-syntax-ns#"
   xmlns:svg="http://www.w3.org/2000/svg"
   xmlns="http://www.w3.org/2000/svg"
   xmlns:sodipodi="http://sodipodi.sourceforge.net/DTD/sodipodi-0.dtd"
   xmlns:inkscape="http://www.inkscape.org/namespaces/inkscape"
   version="1.2"
   width="400"
   height="610"
   id="svg2"
   inkscape:version="0.48.1 "
   sodipodi:docname="Definitivo.svg">
  <sodipodi:namedview
     pagecolor="#ffffff"
     bordercolor="#666666"
     borderopacity="1"
     objecttolerance="10"
     gridtolerance="10"
     guidetolerance="10"
     inkscape:pageopacity="0"
     inkscape:pageshadow="2"
     inkscape:window-width="1280"
     inkscape:window-height="738"
     id="namedview60"
     showgrid="false"
     inkscape:zoom="0.85081967"
     inkscape:cx="200"
     inkscape:cy="305"
     inkscape:window-x="-8"
     inkscape:window-y="-8"
     inkscape:window-maximized="1"
     inkscape:current-layer="svg2" />
  <metadata
     id="metadata8">
    <rdf:RDF>
      <cc:Work
         rdf:about="">
        <dc:format>image/svg+xml</dc:format>
        <dc:type
           rdf:resource="http://purl.org/dc/dcmitype/StillImage" />
        <dc:title />
      </cc:Work>
    </rdf:RDF>
  </metadata>
  <defs
     id="defs6" />
  <flowRoot
     transform="matrix(1.0562808,0,0,1.0626029,771.88317,97.318408)"
     id="flowRoot3164"
     xml:space="preserve"
     style="font-size:20px;font-style:normal;font-variant:normal;font-weight:normal;font-stretch:normal;line-height:125%;letter-spacing:0px;word-spacing:0px;fill:#000000;fill-opacity:1;stroke:none;font-family:DaunPenh;-inkscape-font-specification:DaunPenh"><flowRegion
       id="flowRegion3166"><rect
         width="342.58188"
         height="62.58189"
         x="33.44894"
         y="441.8497"
         id="rect3168"
         style="font-style:normal;font-variant:normal;font-weight:normal;font-stretch:normal;font-family:DaunPenh;-inkscape-font-specification:DaunPenh" /></flowRegion><flowPara
       id="flowPara3170" /></flowRoot>  <flowRoot
     transform="matrix(1.0562808,0,0,1.0626029,771.88317,97.318408)"
     id="flowRoot3172"
     xml:space="preserve"
     style="font-size:20px;font-style:normal;font-weight:bold;line-height:125%;letter-spacing:0px;word-spacing:0px;fill:#000000;fill-opacity:1;stroke:none;font-family:Sans;-inkscape-font-specification:Sans Bold"><flowRegion
       id="flowRegion3174"><rect
         width="2.1579962"
         height="26.435453"
         x="376.03082"
         y="501.19461"
         id="rect3176" /></flowRegion><flowPara
       id="flowPara3178" /></flowRoot>  <text
     x="822.20117"
     y="654.30469"
     transform="scale(0.99702071,1.0029882)"
     id="text3188"
     xml:space="preserve"
     style="font-size:21.18874359px;font-style:normal;font-variant:normal;font-weight:normal;font-stretch:normal;line-height:125%;letter-spacing:0px;word-spacing:0px;fill:#000000;fill-opacity:1;stroke:none;font-family:DaunPenh;-inkscape-font-specification:DaunPenh"><tspan
       x="822.20117"
       y="654.30469"
       id="tspan3190" /></text>
  <flowRoot
     transform="matrix(1.0562808,0,0,1.0626029,771.88317,97.318408)"
     id="flowRoot3192"
     xml:space="preserve"
     style="font-size:20px;font-style:normal;font-variant:normal;font-weight:normal;font-stretch:normal;line-height:125%;letter-spacing:0px;word-spacing:0px;fill:#000000;fill-opacity:1;stroke:none;font-family:DaunPenh;-inkscape-font-specification:DaunPenh"><flowRegion
       id="flowRegion3194"><rect
         width="399.7688"
         height="147.82274"
         x="25.356455"
         y="509.8266"
         id="rect3196" /></flowRegion><flowPara
       id="flowPara3198" /></flowRoot>  <flowRoot
     transform="matrix(1.0562808,0,0,1.0626029,771.88317,97.318408)"
     id="flowRoot3200"
     xml:space="preserve"
     style="font-size:90px;font-style:normal;font-variant:normal;font-weight:normal;font-stretch:normal;line-height:125%;letter-spacing:0px;word-spacing:0px;fill:#000000;fill-opacity:1;stroke:none;font-family:DaunPenh;-inkscape-font-specification:DaunPenh"><flowRegion
       id="flowRegion3202"><rect
         width="412.17728"
         height="179.11368"
         x="19.421965"
         y="506.5896"
         id="rect3204"
         style="font-size:90px" /></flowRegion><flowPara
       id="flowPara3206" /></flowRoot>  <flowRoot
     transform="matrix(1.0562808,0,0,1.0626029,771.88317,97.318408)"
     id="flowRoot3208"
     xml:space="preserve"
     style="font-size:90px;font-style:normal;font-variant:normal;font-weight:normal;font-stretch:normal;line-height:125%;letter-spacing:0px;word-spacing:0px;fill:#000000;fill-opacity:1;stroke:none;font-family:DaunPenh;-inkscape-font-specification:DaunPenh"><flowRegion
       id="flowRegion3210"><rect
         width="396.5318"
         height="192.06166"
         x="10.250482"
         y="504.43161"
         id="rect3212"
         style="font-size:90px" /></flowRegion><flowPara
       id="flowPara3214" /></flowRoot>  <g
     id="g3176">
    <g
       id="g3265"
       transform="matrix(1.0800332,0,0,1.0368797,792.10283,54.807532)"
       style="font-size:93.87129211px;font-style:normal;font-variant:normal;font-weight:normal;font-stretch:normal;text-align:start;line-height:80.00000119%;letter-spacing:0px;word-spacing:0px;writing-mode:lr-tb;text-anchor:start;fill:#000000;fill-opacity:1;stroke:none;font-family:DaunPenh;-inkscape-font-specification:DaunPenh">
      <path
         inkscape:connector-curvature="0"
         style="fill:#ffffff;fill-opacity:1"
         id="path3412"
         d="m -592.34794,11.511928 c -15.56098,0.680301 -31.59873,1.426049 -46.56527,5.802092 -2.97475,8.207717 -1.46333,19.289591 -9.38054,24.861084 -12.42378,10.626371 -30.75145,5.21377 -42.10942,-4.694348 -4.51276,-4.574475 -7.38264,3.904862 -10.02343,6.874528 -10.30722,17.571224 -13.9066,42.116531 -2.59821,59.990106 8.05837,6.81109 18.99558,9.8177 25.17224,19.12933 6.25977,6.90592 8.53245,20.08706 -0.10123,25.916 -3.64176,2.56748 -9.59224,3.66871 -7.60591,9.77561 0.49607,24.60012 0.68212,49.40487 4.02916,73.77451 5.13569,20.59961 19.10139,39.81945 37.95988,48.12809 9.17254,-7.11598 22.72934,-13.60676 33.67639,-6.52886 5.3097,3.31599 3.48161,10.17497 5.16267,15.26127 6.84872,2.70896 15.01036,0.98203 22.3041,0.9846 4.81663,0.51567 6.20454,-4.54807 5.80378,-8.58007 1.2518,-9.53491 11.99685,-12.72125 19.90834,-9.91631 7.10108,0.85079 12.87169,6.43533 19.33471,8.58007 20.46251,-11.93538 37.44067,-33.70993 38.06205,-59.00552 1.6549,-22.53382 3.25461,-45.50459 1.92658,-67.9132 -6.77926,-3.88881 -15.37248,-10.75432 -12.52187,-20.10276 4.1452,-13.95801 17.76507,-21.26377 29.12017,-28.23684 8.20976,-8.42646 9.0547,-21.984668 8.40198,-33.370826 -1.36088,-12.779434 -6.26389,-25.97784 -15.25179,-34.84771 -5.9643,-1.589193 -9.83125,6.139806 -15.31931,7.419644 -13.15231,7.196111 -34.42681,2.728675 -37.62339,-14.171169 -1.89765,-4.508559 2.44719,-13.359637 -4.88256,-13.112458 -15.34219,-3.883028 -30.99498,-6.622805 -46.87912,-6.016863 z m 3.40804,27.392906 c 26.87226,-0.315677 56.35522,8.767378 71.67003,33.370815 6.37819,9.258155 2.2236,21.075209 2.93563,31.682941 0.13723,21.12195 -10.29913,40.3331 -11.10144,61.43184 -2.58448,22.04316 -0.46785,45.07683 -7.1535,66.35483 -8.55201,19.22594 -28.50202,30.07975 -47.88125,33.15983 -24.10021,3.28198 -51.11974,-4.07109 -66.30489,-24.7556 -9.51509,-14.28679 -8.01325,-32.91932 -9.73197,-49.4728 -0.40585,-23.16191 -4.11948,-46.03438 -10.63921,-68.15282 -3.24217,-14.28674 -3.88985,-29.626913 -2.20285,-44.164813 10.02962,-24.074024 36.06185,-36.042421 59.99009,-38.57631 6.78397,-0.73687 13.60211,-0.931301 20.41936,-0.877913 z" />
      <path
         inkscape:connector-curvature="0"
         style="fill:#ffffff;fill-opacity:1"
         id="path3414"
         d="m -661.9259,72.66245 c -5.15008,2.993908 -4.6013,11.070344 -5.23016,16.492013 0.1858,11.976537 -0.41087,24.862157 4.28536,35.972967 3.52864,3.69705 8.78617,-1.06873 13.02914,-0.58097 13.67884,-2.75786 28.08965,-2.92515 41.39823,-6.87384 4.75725,-10.35201 8.9414,-21.232439 12.04624,-32.245556 -2.47946,-4.023908 -8.58508,0.446138 -12.31618,0.386801 -16.26336,3.211089 -30.94685,11.4553 -45.82292,18.390875 -3.98071,-0.72598 1.33309,-6.027596 1.92064,-7.886345 2.84796,-4.757733 8.38041,-10.50239 1.89231,-14.935221 -3.00531,-3.152252 -6.44802,-8.571508 -11.20266,-8.720724 z" />
      <path
         inkscape:connector-curvature="0"
         style="fill:#ffffff;fill-opacity:1"
         id="path3416"
         d="m -612.12131,43.194865 c -17.29262,3.070125 -34.87065,10.328775 -47.27387,23.524835 -0.87032,4.691653 6.21095,3.155236 8.8744,4.008726 17.46207,0.687481 34.76713,3.325396 51.89666,6.540538 5.40714,-0.719191 -0.35644,-7.898326 -0.6439,-10.808067 -3.43298,-7.539858 -5.24734,-16.425384 -10.01888,-23.055047 -0.89337,-0.395289 -1.89269,-0.232769 -2.83441,-0.210985 z" />
      <path
         inkscape:connector-curvature="0"
         style="fill:#ffffff;fill-opacity:1"
         id="path3418"
         d="m -573.3844,42.948716 c -5.66251,4.944779 -6.83711,14.179664 -10.12405,20.996671 -0.4323,4.049327 -5.63455,9.274024 -2.86699,13.077425 9.42996,0.05388 19.86935,-3.696082 29.75424,-4.172163 11.22372,-1.785043 22.95732,-1.222743 33.95245,-3.423304 -1.06065,-4.879695 -7.69897,-7.273086 -11.25849,-10.738424 -11.54745,-8.42183 -25.09343,-13.797547 -38.98476,-15.880863 l -0.4724,0.140658 z" />
      <path
         inkscape:connector-curvature="0"
         style="fill:#ffffff;fill-opacity:1"
         id="path3420"
         d="m -608.13766,42.245431 c 1.2318,5.56636 11.14367,6.963032 15.6097,10.92034 5.40213,0.08941 10.75972,-4.380569 15.21427,-7.439085 2.49922,-4.870589 -6.86,-4.050812 -10.04548,-4.043882 -6.85912,0.378952 -14.15557,-0.770499 -20.77849,0.562627 z" />
      <path
         inkscape:connector-curvature="0"
         style="fill:#ffffff;fill-opacity:1"
         id="path3424"
         d="m -522.42433,71.040452 c -2.05211,0.457356 -3.44672,2.364272 -5.01058,3.679986 -3.37338,3.303206 -6.69866,6.701335 -9.91001,10.163925 -1.00638,1.57063 0.86286,2.950795 1.46815,4.289003 2.66771,4.430004 5.72769,8.660856 7.9766,13.352184 0.54944,0.83033 0.0807,2.13547 -0.86492,2.26892 -3.45643,-1.38659 -6.41942,-3.83542 -9.75861,-5.502286 -10.1776,-5.610261 -20.96187,-10.011322 -32.15126,-12.872836 -5.17154,-1.293543 -10.32716,-2.848372 -15.63416,-3.437554 -1.41904,-0.186864 -2.33231,1.43746 -1.7895,2.710256 2.46666,8.028974 5.63889,15.82244 8.53795,23.69778 1.24628,3.12545 2.31312,6.34661 3.74392,9.37868 1.26965,1.19303 3.28778,0.84472 4.92543,1.12665 13.21966,1.22011 26.39772,3.01518 39.48317,5.37601 2.66369,0.37168 5.2732,1.38685 7.96978,1.52246 1.95855,0.0435 3.45794,-1.6276 3.88319,-3.51216 3.04865,-10.65874 3.74368,-21.91414 3.32048,-32.98267 -0.3439,-5.526565 -0.66103,-11.250691 -2.80152,-16.386461 -0.61494,-1.403836 -1.70195,-3.043647 -3.38811,-2.871887 z" />
      <path
         inkscape:connector-curvature="0"
         style="fill:#ffffff;fill-opacity:1"
         id="path3426"
         d="m -592.25023,109.08365 c -3.39991,0.34878 -6.18216,2.7176 -9.01903,4.48188 -1.7147,1.34185 -3.7988,2.25251 -5.24321,3.91 -0.53186,1.49911 1.04609,2.53009 2.3323,2.18713 8.12137,-0.053 16.25068,0.0926 24.36689,-0.17308 1.27103,0.12942 2.68807,-1.25322 1.81442,-2.50728 -1.57901,-1.74131 -3.78959,-2.76545 -5.66182,-4.15028 -2.659,-1.5836 -5.38537,-3.77605 -8.58955,-3.74837 z" />
      <path
         inkscape:connector-curvature="0"
         style="fill:#ffffff;fill-opacity:1"
         id="path3428"
         d="m -661.52139,71.028017 c -1.83846,0.502835 -2.47946,2.691363 -3.3651,4.231402 -2.66995,5.344206 -2.70266,11.547368 -2.91746,17.425794 -0.19648,9.089967 0.50125,18.221277 2.60075,27.060937 0.65049,2.24274 0.74131,4.99901 2.56039,6.62478 1.75068,1.15883 3.84963,0.0255 5.7231,-0.12539 11.80936,-2.3689 23.70542,-4.35914 35.69362,-5.51332 4.08096,-0.4861 8.21211,-0.74146 12.25164,-1.45992 1.43386,-0.58908 1.5235,-2.53346 2.24293,-3.79091 3.95145,-9.91376 7.86299,-19.84444 11.44511,-29.907445 0.64387,-1.223401 -0.10296,-3.073993 -1.59264,-2.834583 -13.8597,2.526129 -27.59322,6.354822 -40.42849,12.473954 -5.46514,2.449264 -10.54746,5.677954 -15.77939,8.574124 -0.75791,0.51026 -1.80695,0.80913 -2.36809,-0.14297 -0.47135,-0.4161 -0.79317,-1.00859 -0.28036,-1.56649 2.72153,-5.113098 6.27024,-9.770381 8.88781,-14.949981 0.69243,-1.886219 -1.24555,-3.262693 -2.2131,-4.565118 -3.46903,-3.858204 -7.03134,-7.728901 -10.96352,-11.10594 -0.44486,-0.292191 -0.96173,-0.504033 -1.4972,-0.428924 z" />
      <path
         inkscape:connector-curvature="0"
         style="fill:#f9c364;fill-opacity:1"
         id="path3072"
         d="m -600.47674,123.13334 c -19.61936,0.17267 -39.67395,1.48559 -58.54401,7.10316 -3.34397,5.31136 1.31549,12.18851 1.48469,17.93375 5.73883,26.39486 2.64302,53.96814 8.33451,80.315 5.07131,15.08922 19.17711,24.69589 32.96686,30.10055 16.34622,5.501 34.8538,4.9088 51.05308,-1.09009 16.0804,-5.96951 30.77276,-19.81069 32.46953,-38.34882 3.16321,-27.61213 1.93602,-55.96817 9.1354,-82.92876 1.78124,-3.55152 0.12192,-7.34468 -4.01529,-6.96622 -23.97798,-5.41628 -48.42201,-6.46633 -72.88477,-6.11857 z m 7.42346,5.41529 c 6.42846,-0.87127 12.67679,3.18462 13.73337,10.02178 3.44593,10.65229 -9.48881,20.10996 -18.35615,14.48765 -9.00267,-4.06254 -9.19152,-19.03802 -0.0338,-23.13802 1.37227,-0.93564 3.00336,-1.39022 4.65652,-1.37141 z m 39.58047,27.99069 c 12.18956,-0.87026 17.41164,18.27657 7.18725,24.72042 -10.09178,8.4247 -24.90395,-6.48121 -18.72733,-17.61725 2.156,-4.4728 6.87109,-6.95263 11.54008,-7.10317 z m -77.00141,0.17582 c 9.52554,-0.86659 16.08136,10.75785 11.57384,19.30514 -3.54209,7.31065 -13.8928,10.40117 -19.6384,3.93839 -9.09417,-7.51677 -3.39223,-23.20372 8.06456,-23.24353 z m 2.46324,48.28043 c 10.38996,-0.58844 16.78236,13.46615 10.19037,21.59082 -4.93824,6.75721 -16.09553,7.3615 -20.27951,-0.42197 -3.98846,-6.58502 -2.64803,-16.47389 4.69027,-19.76227 1.66759,-0.89245 3.52753,-1.31822 5.39887,-1.40658 z m 71.77126,0.0351 c 8.78171,-0.72082 16.09423,8.97312 12.45114,17.54692 -2.69375,8.33822 -13.77806,12.88671 -20.17828,5.87243 -8.34125,-6.94059 -4.15593,-24.0611 7.72714,-23.41935 z m -34.95771,23.52484 c 9.86076,-0.49002 17.06285,13.32934 9.583,20.92269 -5.92019,8.58022 -21.17783,6.0836 -22.50653,-5.06363 -1.86066,-8.11989 4.72393,-16.64656 12.92353,-15.85906 z" />
      <path
         inkscape:connector-curvature="0"
         style="fill:#b72a3a;fill-opacity:1"
         id="path3074"
         d="m -646.6281,74.068249 c -2.50767,-0.406714 -3.67933,2.872025 -1.75463,4.430701 1.9636,2.435779 4.72151,4.541524 6.36054,7.032823 -1.32022,2.879218 -4.57518,5.294329 -4.21786,8.685559 2.16914,2.291794 5.02463,-1.127819 7.42345,-1.476884 9.89778,-4.271346 20.17921,-7.501857 30.31804,-10.90091 2.38685,-1.353194 -0.22277,-3.865162 -2.09206,-3.604328 -11.90347,-2.113223 -23.95826,-3.849812 -36.03748,-4.166961 z" />
      <path
         inkscape:connector-curvature="0"
         style="fill:#b72a3a;fill-opacity:1"
         id="path3076"
         d="m -538.98809,74.068249 c -12.41028,0.711428 -24.76749,2.255717 -36.98228,4.799915 -3.51941,2.756912 2.56746,3.944285 4.59136,4.355503 11.27779,2.985194 22.09613,7.675355 32.69461,12.663969 3.42936,-0.09598 1.25695,-3.87108 0.15184,-5.450455 -1.29196,-2.08538 -3.82364,-5.302946 -1.11352,-7.384469 1.7082,-2.543393 5.89018,-4.09148 5.66881,-7.613053 -0.77047,-1.951572 -3.40162,-1.340161 -5.01082,-1.37141 z" />
      <path
         inkscape:connector-curvature="0"
         style="fill:#b72a3a;fill-opacity:1"
         id="path3078"
         d="m -599.03367,53.936753 c -2.04659,2.288192 1.03685,5.338866 1.37143,7.834817 1.68886,3.530888 2.25611,7.880454 4.80353,10.85496 3.17148,1.39517 3.62594,-3.664667 4.77462,-5.591114 1.25543,-3.811998 3.46987,-7.491975 3.8467,-11.516276 -1.66054,-3.017001 -4.6516,0.435362 -6.4449,1.547233 -1.864,0.985659 -3.83268,-1.88188 -5.69886,-2.45053 -0.83266,-0.527931 -1.63237,-1.013708 -2.65252,-0.67909 z" />
      <path
         inkscape:connector-curvature="0"
         style="fill:#b72a3a;fill-opacity:1"
         id="path3080"
         d="m -592.79122,88.555899 c -2.94498,5.349427 -5.10094,11.37495 -6.51239,17.406271 1.38952,3.63879 4.64048,-0.6087 7.01854,-0.61536 2.62272,-0.059 5.47901,3.75715 7.72713,1.16041 0.20472,-4.30157 -2.44353,-8.288601 -3.74547,-12.272301 -1.29885,-1.81266 -1.70696,-6.316144 -4.48781,-5.67902 z" />
      <path
         inkscape:connector-curvature="0"
         style="fill:#b72a3a;fill-opacity:1"
         id="path3082"
         d="m -631.17383,159.58757 c -7.44685,0.228 -11.76697,10.30822 -7.20412,16.33377 4.29496,6.73069 16.49168,5.13204 17.90064,-3.28786 1.67312,-6.80533 -3.79561,-13.77345 -10.69652,-13.04591 z" />
      <path
         inkscape:connector-curvature="0"
         style="fill:#b72a3a;fill-opacity:1"
         id="path3084"
         d="m -628.12008,208.02624 c -6.12322,-0.33744 -11.17294,6.18441 -9.46491,12.36021 0.82908,6.22623 7.85767,10.75564 13.32847,7.47239 5.82043,-2.59951 8.9618,-11.38578 3.96479,-16.38651 -1.90418,-2.39266 -4.84629,-3.68868 -7.82835,-3.44609 z" />
      <path
         inkscape:connector-curvature="0"
         style="fill:#b72a3a;fill-opacity:1"
         id="path3092"
         d="m -592.42005,230.93571 c -5.75649,0.18038 -10.56069,6.1625 -9.11059,12.13165 0.49104,5.27048 5.84246,9.34502 10.73025,8.8438 7.35022,-0.78275 12.17395,-10.95924 7.03541,-17.0019 -2.06302,-2.65231 -5.38114,-4.15339 -8.65507,-3.97355 z" />
      <path
         inkscape:connector-curvature="0"
         style="fill:#b72a3a;fill-opacity:1"
         id="path3090"
         d="m -556.33197,207.868 c -6.21116,0.22334 -10.97815,7.09996 -8.84065,13.29207 1.18036,6.50184 9.28818,10.33736 14.39137,5.99549 5.74336,-3.64457 6.82215,-13.29103 0.97855,-17.38869 -1.84098,-1.48605 -4.22031,-2.1338 -6.52927,-1.89887 z" />
      <path
         inkscape:connector-curvature="0"
         style="fill:#b72a3a;fill-opacity:1"
         id="path3088"
         d="m -553.61566,159.5524 c -5.06045,0.41542 -10.41648,4.50255 -9.76859,10.33827 -0.35853,6.72126 6.84627,12.69042 12.95729,9.65257 5.41304,-1.65082 9.00203,-8.28578 6.17497,-13.7492 -1.60224,-3.73443 -5.35286,-6.56181 -9.36367,-6.24164 z" />
      <path
         inkscape:connector-curvature="0"
         style="fill:#1c8fd2;fill-opacity:1"
         id="path3086"
         d="m -592.63938,130.87601 c -5.67555,0.48806 -10.00906,6.53864 -8.72255,12.37778 0.74578,8.33214 12.71913,11.92718 17.29326,4.87024 3.14772,-4.6585 3.1436,-12.61366 -2.22704,-15.61289 -1.87849,-1.21985 -4.12984,-1.83273 -6.34367,-1.63513 z" />
      <path
         inkscape:connector-curvature="0"
         style="fill:#f9c364;fill-opacity:1"
         id="path3115"
         d="m -578.23114,-33.551752 c -2.46001,0.302445 -6.40231,2.635493 -5.23016,5.62627 2.00236,2.240293 6.55383,1.552243 8.09831,-1.002179 1.28662,-2.221732 -0.37996,-4.938876 -2.86815,-4.624091 z" />
      <path
         inkscape:connector-curvature="0"
         style="fill:#f9c364;fill-opacity:1"
         id="path3109"
         d="m -592.42005,-47.054801 c -3.47012,4.886124 -5.11518,11.621302 -2.41262,17.318364 0.70737,1.823786 2.02252,6.157626 4.50468,3.955972 1.55747,-3.763607 3.41329,-7.924104 3.32368,-12.043735 -1.03773,-3.229887 -2.08925,-6.774043 -4.25161,-9.318512 -0.38804,0.0293 -0.77609,0.05861 -1.16413,0.08791 z" />
      <path
         inkscape:connector-curvature="0"
         style="fill:#f9c364;fill-opacity:1"
         id="path3113"
         d="m -605.73164,-33.446259 c -5.81138,1.341256 -0.11813,10.464137 3.9648,5.977912 3.50519,-2.366105 -1.34215,-6.356414 -3.9648,-5.977912 z" />
      <path
         inkscape:connector-curvature="0"
         style="fill:#f9c364;fill-opacity:1"
         id="path3107"
         d="m -571.97182,-19.292673 c -2.55696,4.571131 -5.14364,11.6895331 -11.20266,11.6041831 -2.82699,-0.2725468 -5.95695,-1.5252027 -7.11977,-4.3251951 -3.15356,-1.243231 -4.43545,3.7882454 -7.57529,3.7977329 -4.6888,0.8899255 -9.52167,-1.5982682 -11.45573,-6.2064799 -1.04056,-1.791144 -2.61735,-7.370232 -4.97708,-4.079046 -1.11996,4.01134 -1.93726,9.3124055 -5.71943,11.49869 -4.36479,2.2158069 -7.74572,-2.3745403 -9.95417,-5.62627 -1.17416,-1.607039 -2.872,-5.872346 -5.11206,-3.305435 -1.01329,4.451791 -1.20256,10.047374 -4.96021,13.116244 -3.27054,2.15474922 -6.20915,-1.4397025 -9.17809,-2.2505083 -3.06834,0.8787638 -0.54992,4.63169186 -0.13497,6.6460319 0.4134,2.3632745 2.26512,5.102978 4.82524,3.5164194 16.24169,-4.44189916 32.96884,-7.1305713 49.83833,-6.8394353 17.45806,-0.2956173 34.78543,2.04160222 51.83285,5.6435285 2.99728,0.783204 6.9015,1.1498149 8.5333,-2.3029303 1.12653,-1.79041324 2.97373,-6.959937 -0.658,-6.2768084 -2.52212,1.8655859 -6.57703,4.31134746 -9.16121,1.1428359 -3.32501,-3.3445406 -3.00169,-8.7354324 -5.31452,-12.5536154 -2.91219,-0.329142 -3.58452,3.915651 -5.68567,5.485614 -2.19377,2.7988486 -6.83226,6.4136414 -9.85294,2.7779706 -2.83917,-3.3767456 -3.14352,-8.1896186 -4.89273,-12.0261536 -0.96426,-0.325142 -1.37059,-0.182251 -2.07519,0.562627 z" />
      <path
         inkscape:connector-curvature="0"
         style="fill:#060606"
         id="path2987"
         d="m -592.20218,-50.438459 c -0.60789,0.112276 -1.28124,0.785838 -2.40798,2.150919 -2.28428,2.767489 -4.39821,8.801398 -4.40941,12.514433 -0.005,1.739404 -0.21247,1.750586 -3.15853,0.162948 -2.95427,-1.592062 -3.28847,-1.559154 -5.75414,0.358486 -4.93845,3.840817 -2.78954,10.289304 3.59634,10.852361 3.80964,0.335904 4.12159,0.826033 5.75413,8.505903 0.43668,2.054207 1.09876,2.790055 2.12654,2.379046 1.19864,-0.479334 1.26292,-0.201047 0.40654,1.466536 -1.14045,2.2206705 -4.90088,2.7373625 -7.88067,1.075459 -2.05002,-1.143351 -6.43007,-10.826154 -8.16212,-18.054678 -0.65282,-2.724496 -1.46635,-4.9298 -1.8138,-4.921039 -1.98597,0.0502 -2.66141,2.425769 -2.81452,10.037618 -0.42116,20.9368401 -9.61627,20.3711571 -15.94897,-0.977691 -2.67969,-9.033801 -4.37829,-7.619389 -4.75342,3.943351 -0.32192,9.922287 -2.44542,17.2073446 -5.00359,17.2073446 -2.19505,0 -9.81868,-9.3387866 -13.50972,-16.5555526 -1.79387,-3.507406 -3.89755,-6.387574 -4.69087,-6.387574 -2.11307,0 -1.96422,0.609121 4.0967,16.131886 3.0496,7.810411 5.95906,15.3738681 6.4734,16.7836803 1.06844,2.9285521 0.99305,2.885325 4.40942,1.5317144 3.76993,-1.4936948 21.13268,-4.9767151 31.27248,-6.2898065 21.97626,-2.8458951 50.77919,-0.72976317 72.27071,5.3121167 4.06367,1.1424149 7.46173,1.922439 7.56794,1.7598417 0.17786,-0.2722455 12.16717,-30.8417806 13.2908,-33.8932566 0.29402,-0.798492 -0.27079,-1.338471 -1.37599,-1.336176 -1.2746,0.0027 -2.93249,2.165644 -5.25377,6.84383 -3.62824,7.312186 -11.38534,16.5249473 -13.38462,15.8711693 -2.93058,-0.9583253 -4.72015,-7.4978253 -4.72215,-17.2399353 -9.5e-4,-8.495042 -0.20905,-9.622504 -1.75126,-9.613953 -1.31053,0.0073 -2.35183,1.998172 -4.0967,7.98447 -2.77717,9.527948 -7.723,15.8130449 -11.00791,13.9809679 -2.50728,-1.3983769 -4.15924,-8.5039159 -4.15924,-17.8265489 0,-9.738555 -2.4453,-10.003317 -4.97232,-0.521435 -1.78135,6.683996 -4.32358,12.418294 -6.8174,15.382324 -1.76301,2.0954209 -6.26837,2.4297751 -8.03703,0.586614 -1.55011,-1.615379 -1.52799,-3.005602 0.0312,-2.672353 0.67603,0.144485 1.67985,-1.599002 2.25161,-3.910761 1.44729,-5.851648 2.1334,-6.655952 5.69159,-6.550523 4.8993,0.145165 8.02287,-6.891173 4.62833,-10.428694 -1.67833,-1.749026 -6.82228,-1.589656 -8.81883,0.293307 -1.52474,1.437976 -1.66261,1.271425 -1.78254,-2.05315 -0.14545,-4.031887 -3.14517,-10.844592 -5.75414,-13.101046 -0.55748,-0.482152 -0.96476,-0.754389 -1.37599,-0.782153 -0.0857,-0.0058 -0.16334,-0.01604 -0.25017,0 z m 0.43782,4.595144 1.8138,3.584864 c 1.00893,1.974293 1.85373,4.2888 1.87635,5.149168 0.0226,0.860367 -0.77873,3.828704 -1.78253,6.583113 l -1.8138,5.018809 -1.87635,-4.367016 c -2.17656,-5.030039 -2.16495,-8.062435 0.12509,-12.677381 l 1.65744,-3.291557 z m 13.66607,13.361764 c 1.47221,-0.112854 2.23405,1.040306 1.50108,3.03084 -0.42827,1.163046 -1.60782,1.68465 -3.53379,1.531714 -3.56609,-0.283171 -3.66748,-1.315513 -0.344,-3.584864 0.892,-0.609075 1.70752,-0.926392 2.37671,-0.97769 z m -27.39469,0.03259 c 0.70684,-0.06517 1.60402,0.258251 2.47052,1.075459 1.56311,1.474171 1.72298,2.126976 0.75054,2.770122 -2.00394,1.325371 -3.78516,1.030632 -4.44069,-0.749562 -0.66021,-1.792959 0.0416,-2.987409 1.21963,-3.096019 z m 34.775,13.589892 1.40726,5.214347 c 2.65997,9.8175942 8.60705,11.7189129 14.69806,4.6929129 1.99044,-2.2959649 3.62761,-4.6737499 3.62761,-5.2795259 0,-2.784025 1.78626,0.486426 2.37671,4.3344253 0.96297,6.275672 5.46281,10.73843925 9.28793,9.22287714 1.55312,-0.61536984 3.61829,-1.84394734 4.56578,-2.73753264 1.62742,-1.5348266 1.62658,-1.3939993 0.0937,2.67235299 -1.82217,4.83419691 -2.16929,4.92693711 -10.94537,2.77012201 -22.56157,-5.5447585 -54.13635,-6.935791 -75.92958,-3.3567359 -6.05436,0.99429366 -14.27335,2.6757016 -18.23186,3.7478118 l -7.19262,1.9553798 -0.93818,-2.7375317 c -0.52594,-1.51160694 -1.31346,-3.6907388 -1.75125,-4.8232717 -0.74378,-1.9240702 -0.61167,-1.9069668 2.03271,0.2607176 6.22545,5.1031949 11.67777,1.4105963 13.16571,-8.9295687 l 0.65672,-4.562554 2.34544,4.138887 c 6.05822,10.5870953 14.46254,9.7534586 17.3875,-1.727252 l 1.15708,-4.562553 2.06398,4.367015 c 2.60091,5.4783206 5.46803,7.4498841 10.9141,7.5282139 3.41507,0.04912 4.74842,-0.4741029 6.53595,-2.6397636 2.07894,-2.5186973 2.28613,-2.5871643 2.8458,-0.7495623 0.71895,2.3606577 4.90731,4.0915944 8.88139,3.6500435 3.57922,-0.3976809 6.29056,-2.9236891 8.91265,-8.2777765 l 2.03271,-4.171478 z m -20.29584,26.1695011 c -22.65613,-0.102894 -34.85702,1.3439858 -48.78508,5.8009619 -6.75234,2.16075 -6.92827,2.452689 -5.34759,9.548772 4.62641,20.76923 -25.06557,28.890032 -41.81131,11.438975 l -5.41014,-5.638013 -4.00288,3.97594 c -18.03138,17.985585 -23.34108,48.719755 -12.35263,71.403972 2.72912,5.63388 3.62829,6.58615 7.13013,7.65857 13.07532,4.00423 25.51835,16.53413 25.51835,25.71325 0,5.26989 -3.95309,10.08065 -8.97521,10.91753 l -3.78397,0.61922 -0.59417,7.98446 c -0.5674,7.618 -0.46354,12.63959 0.9069,50.70952 0.81861,22.7407 3.00761,33.14545 9.60065,45.36483 7.51313,13.92467 20.17689,26.05672 34.02446,32.58967 3.61503,1.70547 3.70537,1.68054 5.25378,-0.78215 4.70511,-7.48337 21.94343,-11.69881 27.86378,-6.81125 3.93456,3.24819 3.64161,7.30728 -0.84436,12.48185 l -3.56506,4.13889 5.31632,0.45625 c 8.47387,0.72787 39.14675,-0.0679 41.65495,-1.07546 l 2.28289,-0.91251 -3.03343,-3.03084 c -3.99091,-3.98457 -4.16322,-8.84835 -0.40654,-11.92782 5.66674,-4.64521 19.8428,-1.82746 26.20634,5.21435 l 3.59633,3.97594 8.03703,-4.36701 c 15.02936,-8.14758 28.56614,-24.53125 34.18082,-41.3563 3.67387,-11.00917 4.40956,-19.33883 5.06614,-57.52076 l 0.62545,-35.0339 -3.9716,-0.65179 c -4.18688,-0.69771 -7.57704,-3.68633 -9.16284,-8.04965 -2.9732,-8.18077 9.19846,-22.85141 23.26673,-28.02711 6.27742,-2.30946 6.37747,-2.39565 9.41302,-9.28806 4.07159,-9.244834 5.11357,-14.500525 5.12869,-25.745847 0.0218,-16.242328 -5.55939,-31.11097 -16.01152,-42.562107 l -5.87923,-6.452754 -2.62688,3.389325 c -10.01108,13.025311 -30.22988,16.40367 -39.62224,6.615704 -4.87329,-5.078547 -6.33956,-10.675247 -4.47196,-17.142167 l 1.40725,-4.823271 -7.00503,-2.183508 C -559.12305,8.67317 -568.40369,7.4131132 -591.01382,7.3104321 z m -3.00217,4.8558609 c 15.2876,-0.144448 30.47803,1.719502 45.09492,5.605423 l 6.5985,1.759843 -0.43781,4.953629 c -0.5889,6.387025 3.08425,15.177897 7.97448,19.064957 10.79714,8.582256 28.58889,7.541215 39.84114,-2.346457 2.65966,-2.337118 5.24672,-4.269246 5.72287,-4.269246 1.31405,0 7.69877,9.222371 10.66391,15.382321 6.50251,13.508675 7.29021,30.871716 2.00144,44.908567 -2.86357,7.60018 -2.92754,7.64476 -8.85011,10.13539 -12.15009,5.10951 -22.47755,15.2938 -25.61216,25.19181 -2.32638,7.34593 1.35381,15.68863 8.53739,19.32568 l 4.53451,2.28128 0,18.08727 c 0,23.30922 -1.73515,52.11015 -3.62761,60.74714 -3.96791,18.10895 -16.82901,35.58515 -33.05502,44.84338 l -4.15924,2.34646 -3.84651,-3.19378 c -7.77246,-6.49632 -22.01274,-8.92807 -29.2085,-4.98622 -4.36864,2.39313 -7.50528,9.33831 -6.2545,13.8832 0.86539,3.14448 0.84477,3.16969 -3.65888,3.81299 -5.10563,0.72896 -20.20361,0.75885 -21.89074,0.0325 -0.68226,-0.29369 -0.91473,-2.40273 -0.62545,-5.54025 0.42551,-4.61482 0.16268,-5.41256 -2.90834,-8.89697 -4.05496,-4.60083 -8.77442,-5.93008 -16.73078,-4.75809 -7.14576,1.05258 -12.83774,3.49681 -16.38678,7.03937 -2.65977,2.65493 -2.85817,2.68597 -6.00431,1.10804 -15.379,-7.71323 -29.88041,-26.84567 -34.24337,-45.16922 -2.01764,-8.47368 -3.51508,-33.11396 -3.53379,-58.49846 l 0,-20.95516 4.06542,-1.9228 c 4.8585,-2.28314 7.55205,-5.59595 8.94393,-10.98271 2.82856,-10.94691 -9.44552,-27.27455 -25.20562,-33.50218 -5.6313,-2.22521 -6.31608,-2.82202 -8.47484,-7.691169 -8.03507,-18.123257 -4.52736,-43.851755 8.0683,-59.248017 l 3.31488,-4.041118 5.59778,4.399605 c 20.85266,16.407035 48.34351,7.401962 48.15962,-15.7734 l -0.0625,-6.9416 10.06973,-2.183507 c 11.76374,-2.56109 23.69774,-3.896182 35.58808,-4.00853 z m 2.18908,25.224404 c -9.9645,-0.02329 -19.8541,0.585722 -25.36198,1.857612 -25.12399,5.801684 -43.62033,18.114619 -51.13051,34.023614 -3.23214,6.846793 -3.27615,7.066457 -3.18979,21.541771 0.0913,15.311086 1.33563,22.742996 6.97376,42.236216 4.41783,15.27413 6.46444,31.02877 7.00504,53.70778 0.76434,32.06607 3.26043,42.61598 12.75917,54.19661 8.39825,10.23895 25.3662,19.14236 40.87314,21.41142 23.46168,3.43304 47.59263,-3.86182 62.01333,-18.73906 12.29531,-12.68457 14.57027,-21.02007 15.88642,-58.43328 0.90197,-25.63936 2.24342,-36.35429 6.47341,-51.1006 6.45125,-22.48997 7.00798,-25.75537 7.0363,-42.757653 0.0262,-15.735312 -0.0639,-16.31413 -2.87706,-22.291327 -7.22473,-15.350523 -26.7085,-28.299696 -50.66143,-33.665133 -5.79606,-1.298312 -15.83529,-1.964678 -25.7998,-1.98797 z m -4.09669,4.986219 c 5.88485,-0.109169 14.49474,0.208767 17.91913,0.782153 0.27519,0.04609 -2.65191,2.19835 -6.50468,4.758094 -3.85276,2.559744 -7.2302,4.627262 -7.50539,4.59514 -0.2752,-0.03219 -3.58385,-2.100426 -7.34903,-4.59514 l -6.84868,-4.529967 5.59778,-0.749562 c 1.07086,-0.139433 2.72925,-0.224327 4.69087,-0.260718 z m 21.42165,1.303587 4.81596,0.716974 c 14.24699,2.136303 31.07477,10.189596 40.81059,19.521211 l 6.19195,5.931316 -14.41661,0.130363 c -10.58774,0.08794 -18.23082,0.808678 -28.89577,2.770123 -7.98075,1.467766 -16.03615,2.989688 -17.88787,3.389326 -4.03609,0.871087 -4.32515,2.2656 3.59634,-17.826551 l 5.78541,-14.632762 z m -36.33863,0.260718 c 1.15576,-0.03663 1.74364,0.18456 2.03272,0.651794 0.98147,1.586381 11.78972,30.205452 11.78972,31.220898 0,0.838886 -3.40445,1.047293 -4.15924,0.260726 -1.74257,-1.815987 -32.81213,-6.060688 -45.03237,-6.159449 -15.58741,-0.125907 -15.68669,-0.227897 -7.13013,-7.691165 9.23466,-8.054717 22.22138,-14.161895 37.05789,-17.402883 2.55091,-0.55724 4.28566,-0.843292 5.44141,-0.879921 z m 11.82101,10.656825 3.84651,2.313866 3.81524,2.313866 3.15852,-2.346459 c 3.86156,-2.86545 3.88171,-3.067349 0.0937,6.876422 -1.69902,4.460164 -3.28237,8.307032 -3.50252,8.538492 -0.39843,0.418923 -1.70152,-2.594035 -5.44141,-12.481845 l -1.97017,-5.214342 z m -62.32607,17.793957 c 1.04514,0 13.29081,12.82297 13.29081,13.915792 0,0.440652 -2.31741,4.327248 -5.12869,8.668845 -4.96714,7.67104 -5.05893,7.94875 -3.25234,9.77691 1.79619,1.81762 2.13025,1.73302 9.38175,-2.73754 10.16963,-6.269586 25.14899,-12.20153 38.96551,-15.414915 6.30231,-1.465765 11.57288,-2.53985 11.72718,-2.379043 0.24656,0.256938 -12.40008,33.062798 -12.97808,33.665128 -0.12397,0.1292 -5.85301,0.77916 -12.7279,1.43395 -6.87489,0.65479 -17.43128,2.10912 -23.48563,3.22638 -6.05435,1.11726 -12.217,2.30774 -13.66608,2.63976 -3.26545,0.74821 -3.31267,0.66461 -5.41014,-9.51618 -2.60931,-12.66521 -2.44161,-31.92826 0.31273,-38.325461 1.17304,-2.724496 2.51124,-4.953626 2.97088,-4.953626 z m 139.00619,0 c 4.76657,0 6.55944,27.511716 2.90834,44.582667 -1.98247,9.26914 -1.8884,9.2129 -8.53739,7.49563 -5.1943,-1.34156 -29.33283,-4.87762 -38.65278,-5.6706 l -8.13085,-0.71698 -6.31704,-16.58814 c -3.46767,-9.123408 -6.10937,-16.765316 -5.87923,-16.979218 0.80006,-0.74358 17.91189,3.457879 26.86306,6.583112 9.05872,3.162783 20.16236,8.559279 27.36343,13.296596 3.06994,2.01959 4.18856,2.27895 5.31631,1.30358 2.15087,-1.86024 1.8441,-2.78308 -3.75269,-11.667106 l -5.15996,-8.180006 6.37959,-6.746059 c 3.5143,-3.695179 6.94084,-6.713476 7.59921,-6.713476 z m -14.97952,2.900477 c 1.16722,-0.0079 2.12475,0.04603 2.81453,0.130363 0.53532,0.06546 -1.24264,2.12131 -3.94034,4.595139 -5.27065,4.833303 -5.26692,4.841459 -1.03199,11.406385 1.38752,2.15092 2.39723,3.888442 2.25162,3.845583 -0.14562,-0.04289 -3.40245,-1.700669 -7.25522,-3.682636 -6.11726,-3.146864 -19.77258,-8.04764 -29.02086,-10.396102 l -3.00216,-0.749557 3.50252,-0.814743 c 9.05436,-2.110867 27.51134,-4.279119 35.6819,-4.334432 z m -108.20279,0.03258 c 7.31969,0.03003 25.85627,2.172727 34.49355,4.236653 l 3.50251,0.847336 -4.50323,1.238407 c -8.84973,2.459677 -20.6369,6.688901 -26.92561,9.646535 -3.51609,1.653659 -6.56062,2.998257 -6.78613,2.998257 -0.22551,0 0.918,-2.036299 2.56435,-4.529963 l 3.00215,-4.529973 -4.44069,-4.529963 c -2.43396,-2.489365 -4.20262,-4.745455 -3.94033,-5.018802 0.23511,-0.245014 1.34427,-0.365416 3.03343,-0.358487 z m 53.4134,14.534946 c 0.52456,0.05604 2.18565,3.374968 3.84652,7.756342 1.77159,4.673462 3.07549,8.690192 2.87706,8.896972 -0.19843,0.20679 -1.74057,-0.43624 -3.4087,-1.43393 -2.69446,-1.61154 -3.34134,-1.64716 -5.87922,-0.32591 -1.5712,0.818 -3.15597,1.62758 -3.53379,1.82503 -0.80292,0.41961 4.94728,-15.563029 6.00431,-16.685911 0.0245,-0.02611 0.0588,-0.03631 0.0937,-0.03248 z m -0.344,20.694444 c 2.08281,-0.20125 3.97054,0.90273 7.38031,3.09601 3.33442,2.14481 6.06686,4.06398 6.06686,4.26925 0,0.20526 -5.96679,0.36058 -13.25953,0.35849 l -13.25954,0 4.47197,-3.09597 c 4.24184,-2.93258 6.51713,-4.42649 8.59993,-4.62773 z m -3.9716,13.06845 c 20.71099,-0.22918 41.66136,1.40937 60.2308,4.95364 6.21702,1.18661 11.65515,2.38425 12.10245,2.67235 0.4473,0.28808 -0.19919,4.26016 -1.4698,8.8318 -3.53248,12.70973 -5.46752,28.83379 -6.00433,50.12291 -0.74528,29.55745 -2.35631,38.09112 -9.16283,48.36307 -5.54988,8.37548 -19.13696,17.16545 -31.61648,20.43372 -24.45351,6.40417 -49.3314,0.80723 -65.20313,-14.66535 -11.67684,-11.38319 -13.22143,-17.00413 -14.51043,-52.53454 -0.92269,-25.43348 -2.37203,-37.77514 -6.00432,-51.32874 -2.63245,-9.82282 -2.74734,-9.34859 2.81453,-10.59164 17.6519,-3.94511 38.11255,-6.02803 58.82354,-6.25722 z m 4.87851,3.22638 c -0.40785,0.008 -0.82344,0.0322 -1.2509,0.0652 -14.70194,1.13234 -18.30753,21.65987 -4.90978,27.92935 12.26553,5.73965 24.21547,-6.5551 18.79476,-19.32567 -2.57239,-6.06028 -6.5164,-8.78665 -12.63408,-8.66886 z m -0.40654,5.24694 c 2.80926,-0.0772 5.71893,1.17595 7.66175,3.81299 2.16492,2.9385 1.53546,9.3174 -1.18836,12.15595 -7.36253,7.67264 -19.16398,-2.48414 -13.6348,-11.73228 1.63548,-2.73551 4.35215,-4.15936 7.16141,-4.23666 z m -37.80844,23.00831 c -3.7304,-0.0766 -7.61819,1.40827 -10.75773,4.82327 -6.75723,7.3501 -4.2493,19.25413 4.97232,23.69269 8.69204,4.18366 19.47276,-3.28964 19.48276,-13.49213 0.008,-9.00971 -6.57567,-14.87744 -13.69735,-15.02383 z m 75.89832,0 c -6.5272,0.20876 -12.84151,4.90532 -13.82244,13.13363 -0.63099,5.29295 3.12805,12.58215 7.69303,14.95866 1.92639,1.00287 4.85349,1.82502 6.50467,1.82502 10.36185,0 17.58161,-12.34772 12.79045,-21.83508 -2.88879,-5.72034 -8.08901,-8.24461 -13.16571,-8.08223 z m 0.65672,5.60542 c 6.99208,-0.13603 11.93022,9.56606 6.16067,15.38232 -6.05072,6.09971 -15.16715,2.37354 -15.16715,-6.19203 0,-4.38131 1.54276,-6.60325 5.9105,-8.50591 1.05764,-0.46071 2.09711,-0.66495 3.09598,-0.68438 z m -76.80522,0.0326 c 7.39797,0.11289 11.95227,9.70528 5.94178,15.96894 -2.9248,3.04799 -9.38228,2.80217 -12.54027,-0.48885 -4.46465,-4.65269 -2.67143,-12.78443 3.28361,-14.89347 1.15127,-0.40773 2.25803,-0.60274 3.31488,-0.58662 z m 1.28217,42.79024 c -4.47691,0.18092 -8.89971,2.55797 -11.53954,7.56081 -3.73653,7.08119 -1.00219,16.72833 5.72286,20.27077 9.91778,5.22421 20.98356,-1.86339 20.73366,-13.29658 -0.19526,-8.93333 -7.03395,-14.36511 -14.01007,-14.535 -0.29833,-0.007 -0.60844,-0.0121 -0.90691,0 z m 72.70853,0.0327 c -4.96196,-0.014 -9.91648,2.51914 -12.509,8.21259 -3.34955,7.35596 0.0891,17.22385 7.03631,20.23819 9.43819,4.09517 19.77307,-3.04775 19.8893,-13.72025 0.10034,-9.21256 -7.16452,-14.71002 -14.41661,-14.73053 z m 0.28145,5.3773 c 6.92301,-0.13821 12.31925,9.02953 5.81668,15.80598 -1.94212,2.02393 -3.93449,3.03084 -5.94178,3.03084 -7.9055,0 -11.8061,-10.89336 -5.81668,-16.26224 1.95198,-1.74974 4.00333,-2.5359 5.94178,-2.57458 z m -72.36453,0.16294 c 2.22859,-0.095 4.52926,0.65956 6.41086,2.47681 3.76149,3.63286 3.64266,9.07685 -0.28145,13.16623 -5.42901,5.65768 -13.48438,2.64266 -14.72934,-5.50765 -0.86566,-5.66717 3.69703,-9.92631 8.59993,-10.13539 z m 36.5888,17.79396 c -14.1068,-0.21417 -20.12321,18.47905 -7.97448,27.08202 4.53294,3.20995 13.43612,2.3441 17.48132,-1.69467 8.97742,-8.96318 4.12153,-24.09529 -8.13084,-25.32217 -0.4716,-0.0472 -0.92093,-0.0583 -1.376,-0.0652 z m -0.56289,5.14917 c 1.5518,-0.002 3.19202,0.47455 4.97232,1.43394 5.9903,3.2282 5.65219,12.56716 -0.59418,16.03412 -9.12362,5.06394 -17.83499,-8.03965 -10.00719,-15.05643 1.7928,-1.60706 3.63386,-2.40943 5.62905,-2.41163 z" />
    </g>
    <g
       id="g3150">
      <rect
         style="font-size:93.87129211px;font-style:normal;font-variant:normal;font-weight:normal;font-stretch:normal;text-align:start;line-height:80.00000119%;letter-spacing:0px;word-spacing:0px;writing-mode:lr-tb;text-anchor:start;fill:#000000;fill-opacity:1;stroke:none;font-family:DaunPenh;-inkscape-font-specification:DaunPenh"
         id="rect3274"
         y="400.08676"
         x="2.5000038"
         height="207.41324"
         width="8.2659044" />
      <g
         transform="scale(0.98366724,1.0166039)"
         style="font-size:95.98379517px;font-style:normal;font-variant:normal;font-weight:normal;font-stretch:normal;text-align:start;line-height:80.00000119%;letter-spacing:0px;word-spacing:0px;writing-mode:lr-tb;text-anchor:start;fill:#000000;fill-opacity:1;stroke:none;font-family:DaunPenh;-inkscape-font-specification:DaunPenh"
         id="text3327">
        <path
           d="m 51.987647,428.97364 c 0.62489,1.62474 1.28884,3.12449 1.991851,4.49924 0.703,1.37478 1.546607,2.56989 2.530823,3.58534 0.984199,1.01545 2.132442,1.81219 3.444731,2.39022 1.312265,0.57803 2.890122,0.86704 4.733576,0.86704 1.218526,0 2.343335,-0.20309 3.37443,-0.60927 1.031055,-0.40618 1.937151,-0.98421 2.718291,-1.73409 0.781095,-0.74986 1.390366,-1.63253 1.827817,-2.64799 0.437401,-1.01544 0.656114,-2.13244 0.656139,-3.35099 -2.5e-5,-1.53098 -0.281228,-2.84326 -0.843608,-3.93684 -0.562429,-1.09355 -1.312301,-2.0387 -2.24962,-2.83546 -0.937363,-0.79672 -1.999682,-1.49191 -3.186962,-2.08558 -1.187317,-0.59363 -2.40586,-1.17166 -3.655633,-1.73409 -1.406026,-0.62487 -2.819849,-1.31225 -4.241471,-2.06215 -1.421645,-0.74985 -2.694866,-1.64032 -3.819668,-2.67142 -1.124816,-1.03105 -2.046534,-2.21835 -2.765158,-3.5619 -0.718632,-1.34349 -1.077946,-2.93697 -1.077943,-4.78044 -3e-6,-1.96838 0.398367,-3.71028 1.195111,-5.22568 0.796735,-1.51533 1.874677,-2.78855 3.233829,-3.81967 1.359136,-1.03103 2.936993,-1.81215 4.733576,-2.34335 1.796557,-0.53112 3.710295,-0.7967 5.741218,-0.79675 1.968397,5e-5 3.788401,0.14846 5.460016,0.44524 1.671567,0.29687 3.460326,0.69524 5.366281,1.19511 -0.09376,0.99988 -0.171875,1.92941 -0.234335,2.78859 -0.06252,0.85928 -0.101574,1.70288 -0.117168,2.53083 -0.01565,0.82802 -0.03127,1.67163 -0.04687,2.53082 -0.01565,0.85927 -0.02346,1.7888 -0.02343,2.78859 l -1.968417,0.18747 c -0.281229,-3.3119 -1.288871,-5.78805 -3.022928,-7.42843 -1.734104,-1.64031 -4.069645,-2.46048 -7.006629,-2.46053 -1.124826,5e-5 -2.155901,0.17189 -3.093228,0.51554 -0.937354,0.34374 -1.749716,0.84365 -2.437088,1.49975 -0.687395,0.65618 -1.226366,1.4373 -1.616915,2.34335 -0.390568,0.90614 -0.585847,1.92159 -0.585839,3.04636 -8e-6,1.49979 0.242138,2.75738 0.72644,3.7728 0.484283,1.01549 1.148233,1.89815 1.991852,2.648 0.843595,0.7499 1.819991,1.39823 2.929193,1.94498 1.109172,0.54681 2.273036,1.08578 3.491598,1.61691 1.499727,0.65617 3.007283,1.3748 4.522673,2.15589 1.515346,0.78114 2.87449,1.70286 4.077437,2.76516 1.202894,1.06234 2.179291,2.2965 2.929193,3.7025 0.749843,1.40603 1.124779,3.062 1.12481,4.96791 -3.1e-5,2.12465 -0.437456,4.00714 -1.312278,5.64748 -0.874881,1.64036 -2.030935,3.03075 -3.468165,4.17117 -1.437282,1.14044 -3.09325,2.00748 -4.967911,2.60113 -1.874703,0.59365 -3.796251,0.89047 -5.764652,0.89047 -1.718473,0 -3.499421,-0.17184 -5.342848,-0.51554 -1.843447,-0.34369 -3.79624,-0.81236 -5.858386,-1.40601 -0.218717,-2.06215 -0.484296,-3.99932 -0.79674,-5.81152 -0.31245,-1.81218 -0.734254,-3.74935 -1.265412,-5.81152 z"
           style=""
           id="path3106" />
        <path
           d="m 90.934195,418.70975 c -1e-5,2.99951 0.374927,5.81935 1.12481,8.45951 0.749862,2.64019 1.882482,4.93668 3.397864,6.88946 1.515353,1.9528 3.413469,3.49942 5.694351,4.63984 2.28084,1.14044 4.96789,1.71065 8.06114,1.71065 1.68718,0 3.3041,-0.23433 4.85074,-0.703 1.54658,-0.46867 2.91354,-1.23417 4.10087,-2.29649 1.12477,-0.99983 2.10117,-2.22618 2.9292,-3.67907 0.82794,-1.45287 1.64811,-3.16351 2.46052,-5.13194 l 1.87468,0.46867 c -0.5312,2.06216 -0.95301,3.99933 -1.26541,5.81152 -0.31249,1.8122 -0.57807,3.74937 -0.79674,5.81152 -2.46837,0.71862 -4.91327,1.28103 -7.3347,1.68721 -2.4215,0.40618 -4.85077,0.60927 -7.28783,0.60927 -3.53068,0 -6.78794,-0.54678 -9.771789,-1.64035 -2.983886,-1.09356 -5.561574,-2.64017 -7.73307,-4.63984 -2.171516,-1.99965 -3.866541,-4.41331 -5.085079,-7.24096 -1.218548,-2.82763 -1.827819,-5.97554 -1.827816,-9.44372 -3e-6,-3.9993 0.734247,-7.49089 2.202753,-10.47479 1.468495,-2.98384 3.460344,-5.4756 5.975554,-7.47531 2.515186,-1.99962 5.428754,-3.49155 8.740707,-4.4758 3.31192,-0.98417 6.81133,-1.47627 10.49823,-1.47632 1.9059,5e-5 3.94461,0.14065 6.11616,0.42181 2.17147,0.28125 4.19456,0.67181 6.06928,1.17168 -0.18751,1.9997 -0.30467,3.89782 -0.3515,5.69435 -0.0469,1.79661 -0.0703,3.69472 -0.0703,5.69435 l -1.96842,0.18747 c -0.12502,-1.84341 -0.49214,-3.4447 -1.10137,-4.80388 -0.60931,-1.35911 -1.42168,-2.48392 -2.43709,-3.37443 -1.01549,-0.89043 -2.19498,-1.54657 -3.53847,-1.96842 -1.34355,-0.42176 -2.81205,-0.63266 -4.4055,-0.6327 -3.1245,4e-5 -5.87403,0.49214 -8.24861,1.47631 -2.374618,0.98425 -4.366467,2.35902 -5.975554,4.1243 -1.609117,1.76537 -2.82766,3.89001 -3.655633,6.37393 -0.827995,2.48398 -1.241988,5.2257 -1.241978,8.22517 z"
           style=""
           id="path3108" />
        <path
           d="m 141.97245,426.63029 c -1e-5,2.24963 0.37493,4.17899 1.12481,5.78808 0.74986,1.60912 1.74188,2.92139 2.97606,3.93684 1.23415,1.01546 2.63235,1.76533 4.19461,2.24962 1.56221,0.4843 3.17131,0.72644 4.82731,0.72644 1.68719,0 3.29629,-0.25777 4.82731,-0.77331 1.53096,-0.51553 2.8901,-1.34352 4.07743,-2.48395 1.18727,-1.14043 2.13242,-2.60893 2.83546,-4.40551 0.70297,-1.79656 1.05447,-3.96025 1.05451,-6.49109 l 0,-19.68418 c -4e-5,-1.37473 -0.10158,-2.48391 -0.30463,-3.32756 -0.20313,-0.84357 -0.57807,-1.49971 -1.12481,-1.96842 -0.54682,-0.46863 -1.30451,-0.7967 -2.27306,-0.98421 -0.96862,-0.18742 -2.21841,-0.32802 -3.74936,-0.4218 l 0.0937,-1.68722 c 1.09353,5e-5 2.41362,0.0157 3.96027,0.0469 1.54658,0.0313 3.16349,0.0469 4.85074,0.0469 1.37473,4e-5 2.81198,-0.0234 4.31177,-0.0703 1.49971,-0.0468 2.74949,-0.0703 3.74937,-0.0703 l 0.0469,1.59348 c -1.37482,0.12502 -2.49181,0.27343 -3.351,0.44523 -0.85927,0.17189 -1.54666,0.50777 -2.06215,1.00765 -0.51558,0.49995 -0.86708,1.2342 -1.05451,2.20275 -0.18751,0.96863 -0.28124,2.29653 -0.2812,3.9837 l 0,19.82478 c -4e-5,3.062 -0.51558,5.65531 -1.54662,7.77994 -1.03111,2.12464 -2.38244,3.86654 -4.054,5.22568 -1.67163,1.35914 -3.56193,2.34335 -5.67092,2.95262 -2.10904,0.60928 -4.25712,0.91391 -6.44422,0.91391 -2.15591,0 -4.21806,-0.29682 -6.18646,-0.89047 -1.96843,-0.59365 -3.71032,-1.49975 -5.22568,-2.71829 -1.51538,-1.21854 -2.72611,-2.74953 -3.6322,-4.59298 -0.9061,-1.84343 -1.35915,-4.01493 -1.35914,-6.51452 l 0,-25.02703 c -1e-5,-0.74983 -0.0703,-1.39035 -0.2109,-1.92155 -0.14061,-0.53112 -0.43744,-0.97635 -0.89048,-1.33571 -0.45305,-0.35927 -1.10138,-0.63266 -1.94498,-0.82017 -0.84361,-0.18743 -1.96842,-0.31241 -3.37443,-0.37494 l 0.0937,-1.68722 c 0.5624,5e-5 1.22635,0.008 1.99185,0.0234 0.76549,0.0157 1.57005,0.0235 2.41366,0.0234 0.87484,5e-5 1.75751,0.008 2.64799,0.0234 0.89046,0.0157 1.72626,0.0235 2.50739,0.0234 0.62488,4e-5 1.32007,-0.008 2.08558,-0.0234 0.76548,-0.0156 1.53879,-0.0234 2.31992,-0.0234 0.78111,5e-5 1.52317,-0.008 2.22619,-0.0234 0.70299,-0.0156 1.32007,-0.0234 1.85125,-0.0234 l 0.1406,1.59348 c -1.34354,0.0938 -2.4371,0.25001 -3.28069,0.46868 -0.84363,0.21875 -1.49977,0.56244 -1.96842,1.03107 -0.46869,0.46871 -0.78894,1.0858 -0.96078,1.85125 -0.17186,0.76554 -0.25778,1.72631 -0.25777,2.88233 z"
           style=""
           id="path3110" />
        <path
           d="m 204.07134,396.11981 c 3.40564,5e-5 6.53792,0.53902 9.39685,1.61692 2.85885,1.07799 5.30375,2.61679 7.3347,4.61641 2.03086,1.9997 3.61653,4.41335 4.75701,7.24096 1.14038,2.82768 1.7106,5.9912 1.71064,9.49059 -4e-5,3.46818 -0.56245,6.66295 -1.68721,9.58432 -1.12486,2.92139 -2.70271,5.4444 -4.73358,7.56903 -2.03094,2.12465 -4.46803,3.78062 -7.31126,4.96791 -2.8433,1.1873 -5.99902,1.78095 -9.46715,1.78095 -3.4057,0 -6.53017,-0.53897 -9.37342,-1.61691 -2.84329,-1.07794 -5.28818,-2.61674 -7.3347,-4.61641 -2.04654,-1.99966 -3.64002,-4.41331 -4.78044,-7.24097 -1.14044,-2.82763 -1.71066,-5.99115 -1.71065,-9.49058 -1e-5,-3.46814 0.5624,-6.66291 1.68721,-9.58432 1.12481,-2.92135 2.70266,-5.44436 4.73358,-7.56903 2.03089,-2.1246 4.46798,-3.78057 7.31126,-4.96792 2.84325,-1.18725 5.99897,-1.7809 9.46716,-1.78095 z m -0.28121,2.53083 c -2.15591,4e-5 -4.22587,0.35154 -6.20989,1.05451 -1.98405,0.70304 -3.73376,1.83567 -5.24911,3.39786 -1.51538,1.56227 -2.72611,3.58537 -3.6322,6.06929 -0.90611,2.48398 -1.35915,5.50691 -1.35914,9.06878 -1e-5,4.18681 0.51552,7.70184 1.54661,10.54509 1.03106,2.84329 2.35896,5.13196 3.9837,6.86603 1.62471,1.73409 3.44471,2.96826 5.46002,3.7025 2.01526,0.73426 4.02273,1.10138 6.02242,1.10138 2.15586,0 4.22582,-0.3515 6.20989,-1.05451 1.984,-0.703 3.73371,-1.83562 5.24911,-3.39786 1.51533,-1.56223 2.72606,-3.58533 3.6322,-6.06929 0.90606,-2.48394 1.3591,-5.50687 1.35915,-9.06878 -5e-5,-4.18677 -0.51558,-7.7018 -1.54662,-10.5451 -1.03111,-2.84323 -2.35901,-5.13191 -3.9837,-6.86603 -1.62476,-1.73404 -3.44476,-2.9682 -5.46002,-3.7025 -2.01531,-0.7342 -4.02278,-1.10133 -6.02242,-1.10137 z"
           style=""
           id="path3112" />
        <path
           d="m 250.61037,398.65064 c -1.28106,0.0938 -2.31994,0.24219 -3.11666,0.44523 -0.79676,0.20314 -1.41384,0.51559 -1.85125,0.93735 -0.43745,0.42184 -0.73427,1.00768 -0.89048,1.75751 -0.15624,0.74992 -0.23435,1.70288 -0.23433,2.85889 l 0,29.76061 c -2e-5,1.06232 0.0703,1.93717 0.2109,2.62455 0.14058,0.68739 0.42179,1.22636 0.84361,1.61692 0.42178,0.39056 1.01543,0.66395 1.78094,0.82017 0.76548,0.15623 1.78875,0.23434 3.0698,0.23434 l 2.43709,0 c 1.81217,0 3.29629,-0.14841 4.45237,-0.44524 1.15603,-0.29682 2.13242,-0.79674 2.92919,-1.49975 0.79671,-0.703 1.49191,-1.63253 2.08559,-2.78859 0.59362,-1.15605 1.24975,-2.57768 1.96842,-4.2649 l 1.78095,0.4218 c -0.25,0.90611 -0.48433,1.87469 -0.70301,2.90576 -0.21875,1.03108 -0.42184,2.04653 -0.60927,3.04636 -0.1875,0.99983 -0.34373,1.93718 -0.46867,2.81202 -0.12502,0.87486 -0.20313,1.59349 -0.23434,2.15589 l -7.1238,0 c -2.06217,0 -3.84312,-0.008 -5.34284,-0.0234 -1.49977,-0.0156 -2.7808,-0.0234 -3.84311,-0.0234 -1.06233,0 -1.98405,-0.008 -2.76515,-0.0234 -0.78114,-0.0156 -1.46852,-0.0234 -2.06216,-0.0234 l -1.64034,0 c -0.62491,0 -1.31229,0.008 -2.06216,0.0234 -0.74988,0.0156 -1.49975,0.0234 -2.24962,0.0234 -0.74987,0 -1.46069,0.008 -2.13245,0.0234 -0.67176,0.0156 -1.22636,0.0234 -1.66378,0.0234 l -0.1406,-1.59348 c 1.28103,-0.0937 2.31992,-0.24215 3.11666,-0.44524 0.79673,-0.20309 1.41382,-0.51553 1.85125,-0.93734 0.43742,-0.4218 0.73424,-0.99983 0.89048,-1.73408 0.15621,-0.73425 0.23432,-1.69502 0.23433,-2.88233 l 0,-31.54155 c -1e-5,-0.74983 -0.0703,-1.37472 -0.2109,-1.87468 -0.14061,-0.49988 -0.42181,-0.91387 -0.84361,-1.24198 -0.42181,-0.32803 -1.03108,-0.57017 -1.82782,-0.72644 -0.79674,-0.15618 -1.86687,-0.26554 -3.21039,-0.32807 l 0.1406,-1.68721 c 0.49991,4e-5 1.117,0.008 1.85125,0.0234 0.73425,0.0157 1.52317,0.0235 2.36679,0.0234 0.8436,5e-5 1.70283,0.008 2.57769,0.0234 0.87484,0.0157 1.6872,0.0235 2.43709,0.0234 0.59363,5e-5 1.26539,-0.008 2.01528,-0.0234 0.74986,-0.0156 1.49973,-0.0234 2.24962,-0.0234 0.74986,5e-5 1.45286,-0.008 2.10902,-0.0234 0.65612,-0.0156 1.2029,-0.0234 1.64035,-0.0234 z"
           style=""
           id="path3114" />
        <path
           d="m 295.9777,425.41174 -15.60674,0 -3.60877,9.23282 c -0.6249,1.78096 -0.93735,2.90576 -0.93734,3.37443 -1e-5,0.81237 0.38274,1.37477 1.14825,1.68722 0.76548,0.31245 2.13244,0.51554 4.10087,0.60927 l -0.14061,1.68721 c -1.15606,0 -2.45272,-0.0156 -3.88996,-0.0469 -1.43727,-0.0312 -2.8589,-0.0469 -4.26491,-0.0469 -1.15606,0 -2.35117,0.0156 -3.58533,0.0469 -1.23417,0.0312 -2.42928,0.0469 -3.58533,0.0469 l -0.0937,-1.59348 c 1.21855,-0.0937 2.21838,-0.24214 2.9995,-0.44523 0.78111,-0.20309 1.46068,-0.57803 2.03871,-1.12481 0.57803,-0.54678 1.12481,-1.29666 1.64035,-2.24963 0.51554,-0.95295 1.117,-2.22617 1.80439,-3.81966 l 12.98218,-31.72902 c 0.37492,-0.9373 0.77329,-1.75747 1.19511,-2.46052 0.42178,-0.70297 0.78891,-1.46065 1.10138,-2.27306 l 2.95262,-0.37493 c 0.34367,1.49979 0.71079,2.87455 1.10138,4.1243 0.39053,1.24983 0.75766,2.39026 1.10138,3.4213 l 10.54509,30.55734 c 0.46863,1.37477 0.89044,2.45272 1.26541,3.23383 0.3749,0.78112 0.81232,1.38258 1.31228,1.80438 0.49987,0.42181 1.13258,0.71082 1.89812,0.86704 0.76545,0.15623 1.75747,0.28121 2.97606,0.37494 l -0.1406,1.68721 c -1.31233,0 -2.75739,-0.0156 -4.33521,-0.0469 -1.5779,-0.0312 -3.16357,-0.0469 -4.75701,-0.0469 -1.31231,0 -2.64021,0.0156 -3.9837,0.0469 -1.34356,0.0312 -2.67145,0.0469 -3.9837,0.0469 l -0.1406,-1.59348 c 1.74967,-0.12497 2.99946,-0.33588 3.74936,-0.6327 0.74984,-0.29683 1.12478,-0.85142 1.12481,-1.66378 -3e-5,-0.34369 -0.0625,-0.74206 -0.18747,-1.19512 -0.12501,-0.45304 -0.28123,-0.96076 -0.46867,-1.52318 z m -14.5288,-2.71829 13.63833,0 -6.13959,-18.55936 -0.1406,0 z"
           style=""
           id="path3116" />
        <path
           d="m 89.340716,519.49275 c -0.812403,-1.15606 -1.624766,-2.27305 -2.437089,-3.351 -0.812401,-1.07794 -1.67163,-2.16369 -2.57769,-3.25726 l -25.073891,-29.7606 -0.187469,0.0937 0,27.41725 c -1.1e-5,1.46851 0.08591,2.61675 0.257769,3.44473 0.171835,0.82799 0.492093,1.45288 0.960776,1.87468 0.468658,0.42181 1.101363,0.70301 1.898117,0.84361 0.796725,0.1406 1.835611,0.25777 3.116661,0.3515 l -0.09373,1.68722 c -0.999848,0 -2.179335,-0.0156 -3.538465,-0.0469 -1.359158,-0.0312 -2.788603,-0.0469 -4.288339,-0.0469 -1.187308,0 -2.429284,0.0156 -3.725933,0.0469 -1.296661,0.0312 -2.49177,0.0469 -3.585332,0.0469 l -0.140602,-1.59348 c 1.249786,-0.12498 2.280861,-0.27339 3.093228,-0.44524 0.812357,-0.17184 1.460685,-0.52335 1.944984,-1.05451 0.484286,-0.53116 0.820166,-1.3279 1.007643,-2.39022 0.18746,-1.06231 0.281194,-2.53082 0.281202,-4.40551 l 0,-23.48041 c -8e-6,-1.31224 -0.01563,-2.37456 -0.04687,-3.18696 -0.03125,-0.81232 -0.101553,-1.47627 -0.210902,-1.99185 -0.109364,-0.5155 -0.257777,-0.94511 -0.445237,-1.28885 -0.187476,-0.34365 -0.437433,-0.70296 -0.749874,-1.07794 -0.312453,-0.40614 -0.6249,-0.74983 -0.937341,-1.03107 -0.312453,-0.28116 -0.671767,-0.5155 -1.077943,-0.70301 -0.406186,-0.18743 -0.906101,-0.32803 -1.499747,-0.4218 -0.593653,-0.0937 -1.327903,-0.17181 -2.202753,-0.23434 l 0.09373,-1.68722 c 0.374935,5e-5 0.929528,0.008 1.663781,0.0234 0.734248,0.0157 1.554421,0.0235 2.460523,0.0234 0.90609,5e-5 1.843431,0.008 2.812025,0.0234 0.968577,0.0157 1.874673,0.0235 2.718291,0.0234 l 29.994936,35.38465 0.140601,-0.0937 0,-27.13605 c -4.1e-5,-1.46846 -0.08596,-2.6167 -0.257769,-3.44473 -0.171886,-0.82794 -0.492144,-1.45284 -0.960775,-1.87468 -0.46871,-0.42176 -1.109226,-0.70297 -1.921551,-0.84361 -0.8124,-0.14056 -1.859097,-0.25773 -3.140095,-0.3515 l 0.09374,-1.68722 c 0.999795,5e-5 2.187093,0.0157 3.561898,0.0469 1.374728,0.0313 2.811984,0.0469 4.311772,0.0469 0.593607,4e-5 1.218501,-0.008 1.874684,-0.0234 0.656094,-0.0156 1.304421,-0.0312 1.944984,-0.0469 0.64047,-0.0156 1.249741,-0.0312 1.827816,-0.0469 0.577979,-0.0156 1.085705,-0.0234 1.523181,-0.0234 l 0.04687,1.59349 c -1.218593,0.12502 -2.218423,0.28124 -2.999494,0.46867 -0.781164,0.18751 -1.398247,0.54682 -1.85125,1.07794 -0.453093,0.5312 -0.773351,1.32794 -0.960775,2.39022 -0.187512,1.06236 -0.281246,2.53086 -0.281203,4.40551 l 0,35.24405 z"
           style=""
           id="path3118" />
        <path
           d="m 125.89704,472.90686 c 3.40565,5e-5 6.53793,0.53902 9.39685,1.61692 2.85886,1.07798 5.30375,2.61679 7.3347,4.61641 2.03087,1.9997 3.61653,4.41335 4.75701,7.24096 1.14039,2.82768 1.7106,5.9912 1.71065,9.49059 -5e-5,3.46818 -0.56245,6.66295 -1.68721,9.58432 -1.12486,2.92139 -2.70272,5.4444 -4.73358,7.56903 -2.03095,2.12465 -4.46803,3.78061 -7.31127,4.96791 -2.8433,1.1873 -5.99901,1.78095 -9.46715,1.78095 -3.4057,0 -6.53016,-0.53897 -9.37341,-1.61691 -2.84329,-1.07795 -5.28819,-2.61675 -7.3347,-4.61641 -2.04654,-1.99966 -3.64002,-4.41331 -4.78045,-7.24097 -1.14043,-2.82763 -1.71065,-5.99115 -1.71065,-9.49058 0,-3.46814 0.56241,-6.66291 1.68722,-9.58432 1.1248,-2.92135 2.70266,-5.44436 4.73358,-7.56904 2.03089,-2.1246 4.46798,-3.78057 7.31126,-4.96791 2.84325,-1.18725 5.99897,-1.7809 9.46715,-1.78095 z m -0.2812,2.53083 c -2.15591,4e-5 -4.22587,0.35154 -6.20989,1.05451 -1.98406,0.70304 -3.73376,1.83566 -5.24911,3.39786 -1.51538,1.56227 -2.72612,3.58537 -3.6322,6.06929 -0.90611,2.48398 -1.35916,5.50691 -1.35915,9.06878 -1e-5,4.18681 0.51553,7.70184 1.54662,10.54509 1.03106,2.84328 2.35896,5.13196 3.9837,6.86603 1.62471,1.73409 3.44471,2.96825 5.46001,3.7025 2.01527,0.73425 4.02274,1.10138 6.02243,1.10138 2.15585,0 4.22581,-0.3515 6.20988,-1.05451 1.98401,-0.703 3.73371,-1.83562 5.24912,-3.39787 1.51533,-1.56222 2.72606,-3.58532 3.6322,-6.06928 0.90605,-2.48394 1.3591,-5.50687 1.35914,-9.06878 -4e-5,-4.18677 -0.51558,-7.7018 -1.54661,-10.5451 -1.03112,-2.84323 -2.35902,-5.13191 -3.9837,-6.86603 -1.62476,-1.73404 -3.44477,-2.9682 -5.46002,-3.7025 -2.01531,-0.73421 -4.02279,-1.10133 -6.02242,-1.10137 z"
           style=""
           id="path3120" />
        <path
           d="m 166.34334,512.88449 c -1e-5,0.74988 0.0312,1.38258 0.0937,1.89812 0.0625,0.51554 0.28119,0.94515 0.65614,1.28884 0.37492,0.3437 0.96076,0.60146 1.75751,0.77331 0.79673,0.17185 1.92935,0.27339 3.39787,0.30463 l 0,1.68722 c -1.49977,0 -3.03076,-0.0156 -4.59298,-0.0469 -1.56225,-0.0312 -3.09324,-0.0469 -4.59297,-0.0469 -0.59366,0 -1.2498,0.008 -1.96842,0.0234 -0.71864,0.0156 -1.43726,0.0234 -2.15589,0.0234 -0.68739,0 -1.34352,0.008 -1.96841,0.0234 -0.6249,0.0156 -1.15606,0.0234 -1.59348,0.0234 l -0.0937,-1.59348 c 1.21854,-0.0937 2.19494,-0.24215 2.92919,-0.44524 0.73425,-0.20309 1.30446,-0.51553 1.71065,-0.93734 0.40618,-0.4218 0.67957,-0.99983 0.82018,-1.73408 0.14059,-0.73425 0.21089,-1.69502 0.2109,-2.88233 l 0,-31.54155 c -1e-5,-0.74983 -0.0625,-1.37473 -0.18747,-1.87468 -0.12499,-0.49988 -0.38275,-0.91387 -0.77331,-1.24198 -0.39056,-0.32803 -0.9764,-0.57017 -1.75751,-0.72644 -0.78112,-0.15618 -1.82782,-0.26554 -3.1401,-0.32807 l 0.0937,-1.68722 c 0.49991,5e-5 1.08575,0.008 1.75751,0.0234 0.67176,0.0157 1.3982,0.0235 2.17932,0.0234 0.78111,5e-5 1.57785,0.008 2.39022,0.0234 0.81236,0.0157 1.59347,0.0235 2.34336,0.0234 1.24978,4e-5 2.50737,-0.0859 3.7728,-0.25777 1.26539,-0.1718 2.55424,-0.25772 3.86653,-0.25777 1.87467,5e-5 3.74935,0.15627 5.62405,0.46867 1.87466,0.31249 3.56969,0.8749 5.08508,1.68722 1.51534,0.8124 2.7417,1.91378 3.67907,3.30413 0.93731,1.39043 1.40598,3.16356 1.40601,5.31941 -3e-5,1.43729 -0.22656,2.79644 -0.67957,4.07744 -0.45308,1.28106 -1.08579,2.44493 -1.89812,3.4916 -0.81239,1.04672 -1.77317,1.96844 -2.88232,2.76515 -1.10922,0.79677 -2.33557,1.4451 -3.67907,1.94499 0.99981,1.90595 1.98401,3.73376 2.95263,5.48345 0.96855,1.74972 1.86684,3.35101 2.69485,4.80387 0.82796,1.45289 1.57783,2.72612 2.24962,3.81967 0.67173,1.09357 1.22633,1.9528 1.66379,2.57769 0.59361,0.81237 1.10915,1.4607 1.54661,1.94499 0.43739,0.48429 0.91387,0.85923 1.42945,1.12481 0.5155,0.26558 1.11696,0.46086 1.80438,0.58583 0.68734,0.12498 1.57782,0.23434 2.67142,0.32807 l -0.0937,1.68722 c -0.93738,0 -2.16374,-0.0156 -3.67907,-0.0469 -1.5154,-0.0312 -2.97609,-0.0469 -4.38207,-0.0469 -0.43746,0 -0.91394,0.008 -1.42945,0.0234 -0.51557,0.0156 -0.99205,0.039 -1.42944,0.0703 -0.31248,-0.65614 -0.79677,-1.61691 -1.45288,-2.88233 -0.65617,-1.2654 -1.43729,-2.7339 -2.34336,-4.4055 -0.90612,-1.67159 -1.90595,-3.49159 -2.99949,-5.46002 -1.09359,-1.9684 -2.23402,-3.96806 -3.4213,-5.99899 -0.18749,-0.31242 -0.36714,-0.59363 -0.53897,-0.8436 -0.17187,-0.24994 -0.39058,-0.46084 -0.65614,-0.63271 -0.2656,-0.17182 -0.6171,-0.30461 -1.05451,-0.39837 -0.43744,-0.0937 -1.01547,-0.14058 -1.73408,-0.1406 l -1.40601,0 c -0.24998,2e-5 -0.55461,-0.008 -0.91391,-0.0234 -0.35933,-0.0156 -0.78894,-0.039 -1.28885,-0.0703 z m 0,-17.15336 c 0.24995,0.0313 0.49991,0.0547 0.74988,0.0703 0.24994,0.0156 0.4999,0.0234 0.74987,0.0234 l 1.49975,0 c 3.68686,2e-5 6.53793,-0.84358 8.55324,-2.53082 2.01526,-1.68719 3.0229,-4.4211 3.02293,-8.20174 -3e-5,-3.18693 -0.9608,-5.51466 -2.88233,-6.9832 -1.92157,-1.46846 -4.47583,-2.20271 -7.66277,-2.20275 -0.9686,4e-5 -1.72628,0.086 -2.27305,0.25777 -0.5468,0.17188 -0.94517,0.42965 -1.19511,0.7733 -0.24997,0.34374 -0.4062,0.76554 -0.46867,1.26541 -0.0625,0.49996 -0.0937,1.06236 -0.0937,1.68722 z"
           style=""
           id="path3122" />
        <path
           d="m 196.76008,473.8442 c 0.37494,5e-5 1.02327,0.008 1.94499,0.0234 0.92171,0.0157 1.94498,0.0235 3.06979,0.0234 1.12481,5e-5 2.26524,0.008 3.4213,0.0234 1.15604,0.0157 2.15587,0.0235 2.99949,0.0234 0.5624,1.34357 1.13261,2.67147 1.71065,3.9837 0.57801,1.31232 1.16385,2.64022 1.75752,3.9837 l 13.26338,29.52627 0.14061,0 12.98218,-30.13554 c 0.53112,-1.2185 1.04665,-2.44486 1.54661,-3.67906 0.49987,-1.23413 0.99979,-2.46048 1.49975,-3.67907 0.5936,4e-5 1.44502,-0.008 2.55426,-0.0234 1.10913,-0.0156 2.24175,-0.0234 3.39786,-0.0234 1.18725,5e-5 2.29643,-0.008 3.32756,-0.0234 1.03102,-0.0156 1.76527,-0.0234 2.20276,-0.0234 l 0.0937,1.59349 c -1.37482,0.0938 -2.4762,0.24219 -3.30413,0.44523 -0.82804,0.20314 -1.46074,0.51558 -1.89812,0.93734 -0.43747,0.42185 -0.71868,1.00769 -0.8436,1.75752 -0.12503,0.74991 -0.1719,1.70288 -0.14061,2.85889 l 0.98421,31.54155 c 0.0312,0.74988 0.13274,1.37478 0.30464,1.87469 0.17179,0.49992 0.48424,0.91391 0.93734,1.24197 0.453,0.32808 1.09351,0.57022 1.92155,0.72644 0.82793,0.15623 1.92931,0.26559 3.30413,0.32807 l -0.0937,1.68722 c -0.56247,0 -1.2186,-0.008 -1.96842,-0.0234 -0.74993,-0.0156 -1.54667,-0.0234 -2.39022,-0.0234 -0.81242,0 -1.6404,-0.008 -2.48396,-0.0234 -0.84366,-0.0156 -1.6404,-0.0234 -2.39022,-0.0234 -0.62494,0 -1.27327,0.008 -1.94498,0.0234 -0.67181,0.0156 -1.33576,0.0234 -1.99185,0.0234 -0.65619,0 -1.28108,0.008 -1.87469,0.0234 -0.59369,0.0156 -1.10923,0.0234 -1.54661,0.0234 l -0.1406,-1.59348 c 1.12476,-0.0937 2.02305,-0.24215 2.69485,-0.44524 0.67172,-0.20309 1.18726,-0.52335 1.54662,-0.96077 0.35927,-0.43743 0.57798,-1.02327 0.65614,-1.75752 0.0781,-0.73425 0.1015,-1.6794 0.0703,-2.83546 l -0.84361,-29.7606 -0.1406,-0.1406 c -2.74958,6.34271 -5.46006,12.6307 -8.13144,18.864 -2.67146,6.23334 -5.33507,12.5682 -7.99084,19.00461 l -2.24962,0.2812 c -2.65583,-6.18645 -5.31944,-12.20106 -7.99084,-18.04383 -2.67144,-5.84274 -5.38192,-11.81048 -8.13144,-17.90323 l -0.18747,0.0937 -0.93734,26.99544 c -0.0625,1.46851 -0.0312,2.61675 0.0937,3.44473 0.12497,0.82799 0.39055,1.45288 0.79674,1.87468 0.40617,0.42181 0.98419,0.70301 1.73408,0.84361 0.74986,0.1406 1.71844,0.25777 2.90576,0.3515 l -0.0937,1.68722 c -0.99984,0 -2.07778,-0.0156 -3.23382,-0.0469 -1.15607,-0.0312 -2.48397,-0.0469 -3.98371,-0.0469 -1.1873,0 -2.42928,0.0156 -3.72593,0.0469 -1.29666,0.0312 -2.49177,0.0469 -3.58533,0.0469 l -0.1406,-1.59348 c 1.28103,-0.12498 2.32773,-0.27339 3.14009,-0.44524 0.81236,-0.17184 1.45288,-0.52335 1.92155,-1.05451 0.46867,-0.53116 0.79674,-1.3279 0.98421,-2.39022 0.18746,-1.06231 0.31244,-2.53082 0.37494,-4.40551 l 0.98421,-24.23028 c 0.0312,-1.12478 0.0312,-2.08555 0,-2.88233 -0.0313,-0.7967 -0.10937,-1.48408 -0.23434,-2.06215 -0.12499,-0.57799 -0.29683,-1.07009 -0.51554,-1.47631 -0.21872,-0.40614 -0.49992,-0.78108 -0.8436,-1.12481 -0.59366,-0.59361 -1.34353,-0.99979 -2.24962,-1.21855 -0.90611,-0.21867 -1.9528,-0.35927 -3.1401,-0.4218 z"
           style=""
           id="path3124" />
        <path
           d="m 283.79226,502.19879 -15.60674,0 -3.60877,9.23282 c -0.6249,1.78095 -0.93735,2.90576 -0.93734,3.37443 -10e-6,0.81237 0.38274,1.37477 1.14825,1.68721 0.76548,0.31245 2.13244,0.51554 4.10087,0.60928 l -0.14061,1.68721 c -1.15606,0 -2.45272,-0.0156 -3.88996,-0.0469 -1.43727,-0.0312 -2.8589,-0.0469 -4.26491,-0.0469 -1.15606,0 -2.35117,0.0156 -3.58533,0.0469 -1.23417,0.0312 -2.42928,0.0469 -3.58533,0.0469 l -0.0937,-1.59348 c 1.21855,-0.0937 2.21838,-0.24214 2.9995,-0.44524 0.78111,-0.20308 1.46068,-0.57802 2.03871,-1.12481 0.57803,-0.54678 1.12481,-1.29665 1.64035,-2.24962 0.51554,-0.95295 1.117,-2.22618 1.80439,-3.81966 l 12.98218,-31.72902 c 0.37492,-0.9373 0.77329,-1.75748 1.19511,-2.46052 0.42178,-0.70297 0.78891,-1.46065 1.10138,-2.27306 l 2.95262,-0.37494 c 0.34367,1.4998 0.71079,2.87456 1.10138,4.12431 0.39053,1.24983 0.75766,2.39026 1.10138,3.4213 l 10.54509,30.55734 c 0.46863,1.37477 0.89044,2.45271 1.26541,3.23383 0.3749,0.78112 0.81232,1.38258 1.31228,1.80438 0.49987,0.42181 1.13258,0.71082 1.89812,0.86704 0.76545,0.15623 1.75747,0.2812 2.97606,0.37494 l -0.1406,1.68721 c -1.31233,0 -2.75739,-0.0156 -4.33521,-0.0469 -1.5779,-0.0312 -3.16357,-0.0469 -4.75701,-0.0469 -1.31231,0 -2.64021,0.0156 -3.9837,0.0469 -1.34356,0.0312 -2.67145,0.0469 -3.9837,0.0469 l -0.1406,-1.59348 c 1.74967,-0.12498 2.99946,-0.33588 3.74936,-0.6327 0.74984,-0.29683 1.12478,-0.85142 1.12481,-1.66379 -3e-5,-0.34368 -0.0625,-0.74205 -0.18747,-1.19511 -0.12501,-0.45304 -0.28123,-0.96077 -0.46867,-1.52318 z m -14.5288,-2.71829 13.63833,0 -6.13959,-18.55936 -0.1406,0 z"
           style=""
           id="path3126" />
        <path
           d="m 320.16112,475.43769 c -1.28105,0.0938 -2.31994,0.24219 -3.11666,0.44523 -0.79676,0.20314 -1.41384,0.51558 -1.85125,0.93734 -0.43744,0.42185 -0.73427,1.00769 -0.89048,1.75752 -0.15624,0.74991 -0.23435,1.70288 -0.23433,2.85889 l 0,29.7606 c -2e-5,1.06233 0.0703,1.93718 0.2109,2.62456 0.14059,0.68739 0.42179,1.22636 0.84361,1.61692 0.42178,0.39056 1.01543,0.66395 1.78095,0.82017 0.76547,0.15623 1.78874,0.23434 3.06979,0.23433 l 2.43709,0 c 1.81217,10e-6 3.29629,-0.14841 4.45237,-0.44523 1.15603,-0.29682 2.13242,-0.79674 2.92919,-1.49975 0.79671,-0.703 1.49191,-1.63253 2.08559,-2.78859 0.59362,-1.15605 1.24976,-2.57768 1.96842,-4.26491 l 1.78095,0.42181 c -0.25,0.9061 -0.48433,1.87469 -0.70301,2.90576 -0.21875,1.03108 -0.42184,2.04653 -0.60927,3.04636 -0.1875,0.99983 -0.34373,1.93717 -0.46867,2.81202 -0.12502,0.87486 -0.20313,1.59348 -0.23434,2.15589 l -7.1238,0 c -2.06217,0 -3.84312,-0.008 -5.34284,-0.0234 -1.49977,-0.0156 -2.7808,-0.0234 -3.8431,-0.0234 -1.06234,0 -1.98406,-0.008 -2.76516,-0.0234 -0.78113,-0.0156 -1.46852,-0.0234 -2.06215,-0.0234 l -1.64035,0 c -0.62491,0 -1.31229,0.008 -2.06215,0.0234 -0.74989,0.0156 -1.49976,0.0234 -2.24962,0.0234 -0.74988,0 -1.4607,0.008 -2.13246,0.0234 -0.67176,0.0156 -1.22636,0.0234 -1.66378,0.0234 l -0.1406,-1.59348 c 1.28103,-0.0937 2.31992,-0.24215 3.11666,-0.44524 0.79674,-0.20309 1.41382,-0.51553 1.85125,-0.93734 0.43742,-0.4218 0.73424,-0.99983 0.89048,-1.73408 0.15621,-0.73425 0.23432,-1.69502 0.23433,-2.88233 l 0,-31.54155 c -10e-6,-0.74983 -0.0703,-1.37473 -0.2109,-1.87468 -0.14061,-0.49988 -0.42181,-0.91387 -0.84361,-1.24198 -0.42181,-0.32803 -1.03108,-0.57017 -1.82781,-0.72644 -0.79675,-0.15618 -1.86688,-0.26554 -3.2104,-0.32807 l 0.1406,-1.68722 c 0.49991,5e-5 1.117,0.008 1.85125,0.0234 0.73425,0.0157 1.52318,0.0235 2.36679,0.0234 0.8436,5e-5 1.70283,0.008 2.57769,0.0234 0.87484,0.0157 1.6872,0.0235 2.43709,0.0234 0.59363,4e-5 1.2654,-0.008 2.01528,-0.0234 0.74986,-0.0156 1.49973,-0.0234 2.24962,-0.0234 0.74986,5e-5 1.45286,-0.008 2.10902,-0.0234 0.65612,-0.0156 1.2029,-0.0234 1.64035,-0.0234 z"
           style=""
           id="path3128" />
        <path
           d="m 350.62473,511.19727 c -10e-6,1.06233 0.0703,1.93718 0.2109,2.62456 0.14059,0.68739 0.42179,1.22636 0.84361,1.61692 0.42179,0.39056 1.01544,0.66395 1.78095,0.82017 0.76548,0.15623 1.78874,0.23434 3.06979,0.23433 l 3.4213,0 c 1.81217,10e-6 3.28848,-0.14841 4.42894,-0.44523 1.14041,-0.29682 2.10118,-0.79674 2.88233,-1.49975 0.78108,-0.703 1.47628,-1.63253 2.08558,-2.78859 0.60924,-1.15605 1.27319,-2.57768 1.99185,-4.26491 l 1.82782,0.42181 c -0.24999,0.9061 -0.48433,1.87469 -0.70301,2.90576 -0.21874,1.03108 -0.42183,2.04653 -0.60927,3.04636 -0.1875,0.99983 -0.34372,1.93717 -0.46867,2.81202 -0.12501,0.87486 -0.20312,1.59348 -0.23433,2.15589 -6.21773,0 -11.25594,-0.0156 -15.11464,-0.0469 -3.85874,-0.0312 -6.74106,-0.0469 -8.64698,-0.0469 -0.56241,0 -1.22636,0.008 -1.99185,0.0234 -0.7655,0.0156 -1.55443,0.0234 -2.36679,0.0234 -0.81236,0 -1.60129,0.008 -2.36678,0.0234 -0.7655,0.0156 -1.41383,0.0234 -1.94499,0.0234 l -0.1406,-1.59348 c 1.43725,-0.0937 2.59331,-0.24215 3.46816,-0.44524 0.87485,-0.20309 1.54661,-0.51553 2.01529,-0.93734 0.46866,-0.4218 0.78111,-0.99983 0.93734,-1.73408 0.15622,-0.73425 0.23433,-1.69502 0.23434,-2.88233 l 0,-31.54155 c -1e-5,-0.74983 -0.0703,-1.37473 -0.2109,-1.87468 -0.14061,-0.49988 -0.42182,-0.91387 -0.84361,-1.24198 -0.42181,-0.32803 -1.03109,-0.57017 -1.82782,-0.72644 -0.79674,-0.15618 -1.86688,-0.26554 -3.21039,-0.32807 l 0.1406,-1.68722 c 0.59364,5e-5 1.27322,0.008 2.03872,0.0234 0.76549,0.0157 1.53879,0.0235 2.31992,0.0234 0.81235,5e-5 1.60128,0.008 2.36678,0.0234 0.76549,0.0157 1.47631,0.0235 2.13246,0.0234 1.21853,4e-5 3.78059,-0.0156 7.6862,-0.0469 3.90557,-0.0312 8.87347,-0.0468 14.90373,-0.0469 -0.1875,1.59353 -0.3281,3.26512 -0.4218,5.01478 -0.0938,1.74975 -0.15626,3.60881 -0.18747,5.57719 l -1.87468,0.0469 c -0.28124,-1.62469 -0.59368,-2.96821 -0.93734,-4.03057 -0.34373,-1.06228 -0.82802,-1.91369 -1.45288,-2.55425 -0.62493,-0.64048 -1.43729,-1.09353 -2.43709,-1.35915 -0.99986,-0.26554 -2.29652,-0.39833 -3.88997,-0.39837 l -6.70199,0 c -0.93736,4e-5 -1.53882,0.0938 -1.80439,0.2812 -0.26559,0.18752 -0.39838,0.67181 -0.39837,1.45288 l 0,16.21602 15.84108,-0.46867 0.32807,0.32807 -0.0937,3.88996 c -2.84329,-0.24993 -5.64751,-0.42178 -8.41264,-0.51553 -2.76518,-0.0937 -5.31943,-0.17183 -7.66277,-0.23434 z"
           style=""
           id="path3130" />
        <path
           d="m 51.987647,582.54774 c 0.62489,1.62474 1.28884,3.12448 1.991851,4.49924 0.703,1.37478 1.546607,2.56988 2.530823,3.58533 0.984199,1.01546 2.132442,1.8122 3.444731,2.39022 1.312265,0.57803 2.890122,0.86705 4.733576,0.86704 1.218526,10e-6 2.343335,-0.20308 3.37443,-0.60927 1.031055,-0.40618 1.937151,-0.9842 2.718291,-1.73408 0.781095,-0.74987 1.390366,-1.63253 1.827817,-2.64799 0.437401,-1.01545 0.656114,-2.13244 0.656139,-3.351 -2.5e-5,-1.53098 -0.281228,-2.84325 -0.843608,-3.93683 -0.562429,-1.09355 -1.312301,-2.0387 -2.24962,-2.83546 -0.937363,-0.79672 -1.999682,-1.49192 -3.186962,-2.08559 -1.187317,-0.59363 -2.40586,-1.17165 -3.655633,-1.73408 -1.406026,-0.62487 -2.819849,-1.31225 -4.241471,-2.06215 -1.421645,-0.74985 -2.694866,-1.64032 -3.819668,-2.67142 -1.124816,-1.03105 -2.046534,-2.21835 -2.765158,-3.5619 -0.718632,-1.3435 -1.077946,-2.93698 -1.077943,-4.78045 -3e-6,-1.96838 0.398367,-3.71027 1.195111,-5.22568 0.796735,-1.51532 1.874677,-2.78855 3.233829,-3.81966 1.359136,-1.03104 2.936993,-1.81215 4.733576,-2.34336 1.796557,-0.53111 3.710295,-0.79669 5.741218,-0.79674 1.968397,5e-5 3.788401,0.14846 5.460016,0.44524 1.671567,0.29687 3.460326,0.69524 5.366281,1.19511 -0.09376,0.99987 -0.171875,1.9294 -0.234335,2.78859 -0.06252,0.85927 -0.101574,1.70288 -0.117168,2.53082 -0.01565,0.82803 -0.03127,1.67163 -0.04687,2.53083 -0.01565,0.85926 -0.02346,1.78879 -0.02343,2.78859 l -1.968417,0.18747 c -0.281229,-3.31191 -1.288871,-5.78805 -3.022928,-7.42844 -1.734104,-1.6403 -4.069645,-2.46048 -7.006629,-2.46052 -1.124826,4e-5 -2.155901,0.17189 -3.093228,0.51554 -0.937354,0.34373 -1.749716,0.84365 -2.437088,1.49975 -0.687395,0.65618 -1.226366,1.43729 -1.616915,2.34335 -0.390568,0.90614 -0.585847,1.92159 -0.585839,3.04636 -8e-6,1.49978 0.242138,2.75738 0.72644,3.7728 0.484283,1.01549 1.148233,1.89815 1.991852,2.64799 0.843595,0.7499 1.819991,1.39823 2.929193,1.94499 1.109172,0.54681 2.273036,1.08578 3.491598,1.61691 1.499727,0.65617 3.007283,1.37479 4.522673,2.15589 1.515346,0.78114 2.87449,1.70286 4.077437,2.76515 1.202894,1.06235 2.179291,2.29651 2.929193,3.7025 0.749843,1.40603 1.124779,3.062 1.12481,4.96792 -3.1e-5,2.12465 -0.437456,4.00714 -1.312278,5.64748 -0.874881,1.64035 -2.030935,3.03074 -3.468165,4.17117 -1.437282,1.14043 -3.09325,2.00748 -4.967911,2.60112 -1.874703,0.59365 -3.796251,0.89048 -5.764652,0.89048 -1.718473,0 -3.499421,-0.17185 -5.342848,-0.51554 -1.843447,-0.34369 -3.79624,-0.81236 -5.858386,-1.40601 -0.218717,-2.06215 -0.484296,-3.99932 -0.79674,-5.81152 -0.31245,-1.81219 -0.734254,-3.74936 -1.265412,-5.81152 z"
           style=""
           id="path3132" />
        <path
           d="m 94.542961,580.20439 c -1.3e-5,2.24963 0.374923,4.17899 1.12481,5.78808 0.749858,1.60911 1.741877,2.92139 2.97606,3.93684 1.234148,1.01545 2.632349,1.76533 4.194609,2.24962 1.56221,0.48429 3.17131,0.72644 4.82731,0.72644 1.68718,0 3.29628,-0.25777 4.82731,-0.77331 1.53095,-0.51553 2.8901,-1.34352 4.07743,-2.48396 1.18726,-1.14042 2.13242,-2.60892 2.83546,-4.4055 0.70297,-1.79656 1.05447,-3.96026 1.05451,-6.49109 l 0,-19.68418 c -4e-5,-1.37473 -0.10158,-2.48392 -0.30464,-3.32756 -0.20313,-0.84357 -0.57806,-1.49971 -1.12481,-1.96842 -0.54682,-0.46863 -1.3045,-0.7967 -2.27305,-0.98421 -0.96862,-0.18743 -2.21841,-0.32803 -3.74937,-0.4218 l 0.0937,-1.68722 c 1.09353,5e-5 2.41362,0.0157 3.96027,0.0469 1.54657,0.0313 3.16349,0.0469 4.85074,0.0469 1.37473,5e-5 2.81198,-0.0234 4.31177,-0.0703 1.4997,-0.0468 2.74949,-0.0702 3.74937,-0.0703 l 0.0469,1.59348 c -1.37482,0.12503 -2.49182,0.27344 -3.351,0.44524 -0.85928,0.17189 -1.54666,0.50777 -2.06215,1.00764 -0.51558,0.49996 -0.86709,1.23421 -1.05451,2.20276 -0.18751,0.96862 -0.28125,2.29652 -0.2812,3.9837 l 0,19.82478 c -5e-5,3.06199 -0.51558,5.6553 -1.54662,7.77993 -1.03111,2.12465 -2.38245,3.86654 -4.054,5.22568 -1.67163,1.35915 -3.56193,2.34336 -5.67092,2.95263 -2.10905,0.60927 -4.25712,0.91391 -6.44422,0.91391 -2.15591,0 -4.21806,-0.29683 -6.186459,-0.89048 -1.968434,-0.59364 -3.710326,-1.49974 -5.22568,-2.71829 -1.515381,-1.21854 -2.726113,-2.74953 -3.6322,-4.59297 -0.906105,-1.84343 -1.359153,-4.01494 -1.359145,-6.51453 l 0,-25.02702 c -8e-6,-0.74984 -0.07031,-1.39035 -0.210902,-1.92155 -0.140609,-0.53112 -0.437434,-0.97636 -0.890475,-1.33571 -0.453055,-0.35928 -1.101382,-0.63267 -1.944984,-0.82018 -0.843612,-0.18742 -1.968421,-0.3124 -3.37443,-0.37493 l 0.09373,-1.68722 c 0.562403,5e-5 1.226353,0.008 1.991851,0.0234 0.765492,0.0157 1.570042,0.0235 2.413655,0.0234 0.874846,4e-5 1.757508,0.008 2.647991,0.0234 0.890465,0.0157 1.72626,0.0235 2.507389,0.0234 0.624883,5e-5 1.320077,-0.008 2.085585,-0.0234 0.765482,-0.0156 1.538788,-0.0234 2.319921,-0.0234 0.781102,4e-5 1.523163,-0.008 2.226187,-0.0234 0.702988,-0.0156 1.320072,-0.0234 1.851252,-0.0234 l 0.1406,1.59348 c -1.343543,0.0938 -2.437107,0.25 -3.280697,0.46867 -0.843623,0.21876 -1.499762,0.56245 -1.968418,1.03108 -0.468685,0.46871 -0.788943,1.08579 -0.960775,1.85125 -0.17186,0.76553 -0.257782,1.72631 -0.257769,2.88232 z"
           style=""
           id="path3134" />
        <path
           d="m 144.40954,589.67154 c -2e-5,0.74988 0.0469,1.38258 0.1406,1.89811 0.0937,0.51555 0.37492,0.94516 0.84361,1.28885 0.46865,0.34369 1.17947,0.60146 2.13245,0.77331 0.95294,0.17184 2.28866,0.27339 4.00713,0.30463 l -0.0937,1.68722 c -1.68723,0 -3.45256,-0.0156 -5.29598,-0.0469 -1.84345,-0.0312 -3.51504,-0.0469 -5.01478,-0.0469 -0.59366,0 -1.2498,0.008 -1.96842,0.0234 -0.71863,0.0156 -1.43726,0.0234 -2.15588,0.0234 -0.68739,0 -1.34353,0.008 -1.96842,0.0234 -0.6249,0.0156 -1.15606,0.0234 -1.59348,0.0234 l -0.0937,-1.59348 c 1.21854,-0.0937 2.19494,-0.24215 2.9292,-0.44524 0.73424,-0.20309 1.30446,-0.51554 1.71065,-0.93734 0.40617,-0.4218 0.67956,-0.99983 0.82017,-1.73409 0.14059,-0.73424 0.21089,-1.69501 0.2109,-2.88232 l 0,-31.54155 c -1e-5,-0.74983 -0.0625,-1.37473 -0.18747,-1.87468 -0.12498,-0.49988 -0.38275,-0.91387 -0.7733,-1.24198 -0.39057,-0.32803 -0.97641,-0.57018 -1.75752,-0.72644 -0.78112,-0.15618 -1.82782,-0.26554 -3.14009,-0.32807 l 0.0937,-1.68722 c 0.49991,5e-5 1.08575,0.008 1.75752,0.0234 0.67175,0.0157 1.39819,0.0235 2.17932,0.0234 0.78111,5e-5 1.57785,0.008 2.39022,0.0234 0.81235,0.0157 1.59347,0.0235 2.34335,0.0234 1.1248,4e-5 2.40583,-0.0781 3.8431,-0.23434 1.43724,-0.15618 2.85888,-0.23429 4.26491,-0.23433 2.21835,4e-5 4.33518,0.21875 6.35049,0.65614 2.01525,0.43747 3.78058,1.15609 5.29598,2.15588 1.51534,0.99987 2.72607,2.31996 3.6322,3.96027 0.90606,1.64039 1.35911,3.64786 1.35914,6.02242 -3e-5,2.40588 -0.48433,4.49927 -1.45288,6.28019 -0.96862,1.78097 -2.23403,3.2651 -3.79623,4.45237 -1.56227,1.18732 -3.31197,2.0778 -5.24911,2.67143 -1.9372,0.59367 -3.88999,0.89049 -5.85839,0.89047 -1.18732,2e-5 -2.31994,-0.0781 -3.39786,-0.23433 -1.07796,-0.15621 -1.91376,-0.3593 -2.50739,-0.60927 z m 0,-15.51301 c 0.71861,0.21874 1.48411,0.38277 2.29648,0.49211 0.81235,0.10937 1.71845,0.16405 2.7183,0.16403 1.21852,2e-5 2.46831,-0.18745 3.74936,-0.5624 1.28101,-0.37492 2.44488,-1.00762 3.4916,-1.89812 1.04667,-0.89045 1.91371,-2.06994 2.60112,-3.53847 0.68736,-1.46847 1.03105,-3.31191 1.03108,-5.53031 -3e-5,-3.59311 -0.97643,-6.24891 -2.92919,-7.96741 -1.95282,-1.71842 -4.67892,-2.57764 -8.17831,-2.57769 -1.09358,5e-5 -1.95281,0.0625 -2.57769,0.18747 -0.62491,0.12502 -1.10139,0.3203 -1.42945,0.58584 -0.32808,0.26562 -0.53898,0.61712 -0.6327,1.05451 -0.0937,0.43747 -0.14062,0.98425 -0.1406,1.64035 z"
           style=""
           id="path3136" />
        <path
           d="m 182.09067,587.98432 c -10e-6,1.06233 0.0703,1.93718 0.21091,2.62456 0.14058,0.68739 0.42179,1.22636 0.8436,1.61691 0.42179,0.39057 1.01544,0.66396 1.78095,0.82018 0.76548,0.15622 1.78874,0.23434 3.0698,0.23433 l 3.42129,0 c 1.81217,10e-6 3.28849,-0.14841 4.42894,-0.44523 1.14041,-0.29683 2.10118,-0.79674 2.88233,-1.49975 0.78109,-0.703 1.47628,-1.63253 2.08559,-2.78859 0.60923,-1.15605 1.27318,-2.57768 1.99185,-4.26491 l 1.82781,0.42181 c -0.24999,0.9061 -0.48433,1.87469 -0.703,2.90576 -0.21875,1.03108 -0.42184,2.04653 -0.60928,3.04636 -0.1875,0.99983 -0.34372,1.93717 -0.46867,2.81202 -0.12501,0.87485 -0.20312,1.59348 -0.23433,2.15589 -6.21773,0 -11.25594,-0.0156 -15.11464,-0.0469 -3.85874,-0.0312 -6.74106,-0.0469 -8.64697,-0.0469 -0.56242,0 -1.22637,0.008 -1.99186,0.0234 -0.7655,0.0156 -1.55443,0.0234 -2.36678,0.0234 -0.81237,0 -1.6013,0.008 -2.36679,0.0234 -0.7655,0.0156 -1.41383,0.0234 -1.94499,0.0234 l -0.1406,-1.59348 c 1.43726,-0.0937 2.59331,-0.24215 3.46817,-0.44524 0.87484,-0.20309 1.5466,-0.51554 2.01528,-0.93734 0.46867,-0.4218 0.78111,-0.99983 0.93734,-1.73409 0.15622,-0.73424 0.23433,-1.69501 0.23434,-2.88232 l 0,-31.54155 c -1e-5,-0.74983 -0.0703,-1.37473 -0.2109,-1.87468 -0.14061,-0.49988 -0.42181,-0.91387 -0.84361,-1.24198 -0.42181,-0.32803 -1.03108,-0.57018 -1.82782,-0.72644 -0.79674,-0.15618 -1.86687,-0.26554 -3.21039,-0.32807 l 0.1406,-1.68722 c 0.59365,5e-5 1.27322,0.008 2.03872,0.0234 0.76549,0.0157 1.53879,0.0235 2.31992,0.0234 0.81235,5e-5 1.60128,0.008 2.36679,0.0234 0.76548,0.0157 1.4763,0.0235 2.13245,0.0234 1.21853,4e-5 3.7806,-0.0156 7.6862,-0.0469 3.90557,-0.0312 8.87347,-0.0468 14.90373,-0.0469 -0.1875,1.59353 -0.3281,3.26512 -0.4218,5.01478 -0.0938,1.74974 -0.15626,3.6088 -0.18747,5.57719 l -1.87468,0.0469 c -0.28123,-1.62469 -0.59368,-2.96821 -0.93734,-4.03057 -0.34372,-1.06228 -0.82802,-1.9137 -1.45288,-2.55425 -0.62493,-0.64048 -1.43729,-1.09353 -2.43709,-1.35915 -0.99986,-0.26554 -2.29651,-0.39833 -3.88997,-0.39837 l -6.70199,0 c -0.93736,4e-5 -1.53882,0.0938 -1.80439,0.2812 -0.26559,0.18751 -0.39838,0.67181 -0.39837,1.45288 l 0,16.21602 15.84108,-0.46868 0.32807,0.32807 -0.0937,3.88997 c -2.8433,-0.24993 -5.64751,-0.42178 -8.41265,-0.51554 -2.76517,-0.0937 -5.31943,-0.17182 -7.66277,-0.23433 z"
           style=""
           id="path3138" />
        <path
           d="m 220.33422,589.67154 c -10e-6,0.74988 0.0312,1.38258 0.0937,1.89811 0.0625,0.51555 0.28119,0.94516 0.65614,1.28885 0.37492,0.34369 0.96076,0.60146 1.75752,0.77331 0.79672,0.17184 1.92934,0.27339 3.39786,0.30463 l 0,1.68722 c -1.49976,0 -3.03075,-0.0156 -4.59297,-0.0469 -1.56225,-0.0312 -3.09324,-0.0469 -4.59298,-0.0469 -0.59366,0 -1.24979,0.008 -1.96841,0.0234 -0.71864,0.0156 -1.43727,0.0234 -2.15589,0.0234 -0.68739,0 -1.34353,0.008 -1.96842,0.0234 -0.6249,0.0156 -1.15606,0.0234 -1.59348,0.0234 l -0.0937,-1.59348 c 1.21854,-0.0937 2.19493,-0.24215 2.92919,-0.44524 0.73424,-0.20309 1.30446,-0.51554 1.71065,-0.93734 0.40617,-0.4218 0.67956,-0.99983 0.82017,-1.73409 0.1406,-0.73424 0.2109,-1.69501 0.2109,-2.88232 l 0,-31.54155 c 0,-0.74983 -0.0625,-1.37473 -0.18746,-1.87468 -0.12499,-0.49988 -0.38276,-0.91387 -0.77331,-1.24198 -0.39057,-0.32803 -0.9764,-0.57018 -1.75752,-0.72644 -0.78112,-0.15618 -1.82782,-0.26554 -3.14009,-0.32807 l 0.0937,-1.68722 c 0.49992,5e-5 1.08575,0.008 1.75752,0.0234 0.67176,0.0157 1.39819,0.0235 2.17932,0.0234 0.78111,5e-5 1.57785,0.008 2.39022,0.0234 0.81235,0.0157 1.59347,0.0235 2.34335,0.0234 1.24978,4e-5 2.50738,-0.0859 3.7728,-0.25777 1.2654,-0.1718 2.55424,-0.25773 3.86654,-0.25777 1.87466,4e-5 3.74934,0.15627 5.62405,0.46867 1.87466,0.31249 3.56968,0.8749 5.08508,1.68722 1.51534,0.8124 2.74169,1.91378 3.67907,3.30413 0.9373,1.39042 1.40597,3.16356 1.40601,5.31941 -4e-5,1.43729 -0.22656,2.79643 -0.67957,4.07744 -0.45309,1.28106 -1.08579,2.44492 -1.89812,3.49159 -0.8124,1.04673 -1.77317,1.96845 -2.88233,2.76516 -1.10921,0.79677 -2.33557,1.44509 -3.67906,1.94499 0.9998,1.90595 1.98401,3.73376 2.95262,5.48345 0.96856,1.74972 1.86684,3.35101 2.69486,4.80387 0.82795,1.45289 1.57783,2.72611 2.24962,3.81967 0.67173,1.09357 1.22632,1.9528 1.66378,2.57769 0.59362,0.81237 1.10915,1.46069 1.54662,1.94498 0.43738,0.4843 0.91387,0.85924 1.42944,1.12481 0.5155,0.26559 1.11696,0.46087 1.80438,0.58584 0.68735,0.12498 1.57782,0.23434 2.67143,0.32807 l -0.0937,1.68722 c -0.93738,0 -2.16373,-0.0156 -3.67906,-0.0469 -1.51541,-0.0312 -2.9761,-0.0469 -4.38207,-0.0469 -0.43746,0 -0.91395,0.008 -1.42945,0.0234 -0.51557,0.0156 -0.99205,0.039 -1.42945,0.0703 -0.31248,-0.65614 -0.79677,-1.61692 -1.45288,-2.88233 -0.65617,-1.26541 -1.43728,-2.73391 -2.34335,-4.4055 -0.90613,-1.67159 -1.90596,-3.49159 -2.99949,-5.46002 -1.09359,-1.9684 -2.23403,-3.96806 -3.4213,-5.99899 -0.18749,-0.31243 -0.36715,-0.59363 -0.53897,-0.84361 -0.17187,-0.24993 -0.39058,-0.46083 -0.65614,-0.6327 -0.2656,-0.17183 -0.61711,-0.30462 -1.05451,-0.39837 -0.43745,-0.0937 -1.01547,-0.14058 -1.73408,-0.1406 l -1.40602,0 c -0.24997,2e-5 -0.55461,-0.008 -0.91391,-0.0234 -0.35932,-0.0156 -0.78894,-0.039 -1.28884,-0.0703 z m 0,-17.15336 c 0.24994,0.0313 0.4999,0.0547 0.74987,0.0703 0.24995,0.0157 0.4999,0.0235 0.74988,0.0234 l 1.49974,0 c 3.68686,2e-5 6.53794,-0.84359 8.55325,-2.53083 2.01525,-1.68718 3.0229,-4.42109 3.02292,-8.20174 -2e-5,-3.18692 -0.9608,-5.51465 -2.88232,-6.98319 -1.92158,-1.46846 -4.47583,-2.20271 -7.66277,-2.20275 -0.9686,4e-5 -1.72629,0.086 -2.27305,0.25776 -0.5468,0.17189 -0.94517,0.42966 -1.19512,0.77331 -0.24997,0.34373 -0.40619,0.76554 -0.46867,1.26541 -0.0625,0.49996 -0.0937,1.06236 -0.0937,1.68722 z"
           style=""
           id="path3140" />
        <path
           d="m 252.06324,594.03018 c 1.21854,-0.0937 2.20275,-0.24215 2.95262,-0.44524 0.74987,-0.20309 1.33571,-0.51554 1.75752,-0.93734 0.4218,-0.4218 0.71081,-0.99983 0.86704,-1.73409 0.15622,-0.73424 0.23433,-1.69501 0.23434,-2.88232 l 0,-31.54155 c -10e-6,-0.74983 -0.0625,-1.37473 -0.18747,-1.87468 -0.12499,-0.49988 -0.39838,-0.91387 -0.82018,-1.24198 -0.42181,-0.32803 -1.02327,-0.57018 -1.80438,-0.72644 -0.78112,-0.15618 -1.8122,-0.26554 -3.09323,-0.32807 l 0.0937,-1.68722 c 0.49991,5e-5 1.10918,0.008 1.82781,0.0234 0.71863,0.0157 1.48412,0.0235 2.29649,0.0234 0.8436,5e-5 1.69502,0.008 2.55426,0.0234 0.85922,0.0157 1.66377,0.0235 2.41365,0.0234 0.59364,4e-5 1.25759,-0.008 1.99185,-0.0234 0.73424,-0.0156 1.46068,-0.0234 2.17932,-0.0234 0.71862,5e-5 1.39819,-0.008 2.03872,-0.0234 0.6405,-0.0156 1.17947,-0.0234 1.61692,-0.0234 l 0.18746,1.59348 c -1.21856,0.0938 -2.21058,0.24219 -2.97606,0.44524 -0.76551,0.20314 -1.36697,0.51558 -1.80438,0.93734 -0.43744,0.42185 -0.73426,0.99988 -0.89047,1.73409 -0.15624,0.73429 -0.23435,1.67944 -0.23434,2.83545 l 0,31.58842 c -1e-5,0.74988 0.0625,1.37477 0.18747,1.87468 0.12496,0.49992 0.39054,0.91392 0.79674,1.24198 0.40617,0.32807 0.99982,0.57022 1.78095,0.72644 0.7811,0.15623 1.8278,0.26558 3.14009,0.32807 l 0,1.68722 c -0.49993,0 -1.12482,-0.008 -1.87468,-0.0234 -0.74989,-0.0156 -1.54663,-0.0234 -2.39022,-0.0234 -0.81238,0 -1.64036,-0.008 -2.48396,-0.0234 -0.84362,-0.0156 -1.64036,-0.0234 -2.39022,-0.0234 -0.6249,0 -1.29666,0.008 -2.01528,0.0234 -0.71864,0.0156 -1.43727,0.0234 -2.15589,0.0234 -0.71863,0 -1.3982,0.008 -2.03872,0.0234 -0.64052,0.0156 -1.17949,0.0234 -1.61691,0.0234 z"
           style=""
           id="path3142" />
        <path
           d="m 298.18045,549.69391 c 3.40565,5e-5 6.53793,0.53902 9.39685,1.61692 2.85886,1.07798 5.30375,2.61678 7.3347,4.6164 2.03086,1.9997 3.61653,4.41336 4.75701,7.24097 1.14038,2.82768 1.7106,5.9912 1.71065,9.49058 -5e-5,3.46819 -0.56245,6.66296 -1.68722,9.58432 -1.12485,2.9214 -2.70271,5.44441 -4.73357,7.56904 -2.03095,2.12464 -4.46804,3.78061 -7.31127,4.96791 -2.8433,1.1873 -5.99901,1.78095 -9.46715,1.78095 -3.4057,0 -6.53017,-0.53897 -9.37342,-1.61692 -2.84328,-1.07794 -5.28818,-2.61674 -7.33469,-4.6164 -2.04654,-1.99966 -3.64002,-4.41331 -4.78045,-7.24097 -1.14043,-2.82763 -1.71065,-5.99116 -1.71065,-9.49058 0,-3.46814 0.5624,-6.66291 1.68722,-9.58432 1.1248,-2.92135 2.70266,-5.44436 4.73357,-7.56904 2.0309,-2.1246 4.46799,-3.78057 7.31127,-4.96791 2.84325,-1.18725 5.99896,-1.7809 9.46715,-1.78095 z m -0.2812,2.53082 c -2.15591,5e-5 -4.22587,0.35155 -6.20989,1.05451 -1.98406,0.70305 -3.73376,1.83567 -5.24911,3.39787 -1.51539,1.56227 -2.72612,3.58537 -3.6322,6.06929 -0.90611,2.48398 -1.35916,5.50691 -1.35915,9.06878 -10e-6,4.18681 0.51553,7.70184 1.54662,10.54509 1.03106,2.84328 2.35896,5.13196 3.9837,6.86603 1.62471,1.73409 3.44471,2.96825 5.46001,3.7025 2.01527,0.73425 4.02274,1.10138 6.02242,1.10138 2.15586,0 4.22582,-0.3515 6.20989,-1.05451 1.98401,-0.70301 3.73371,-1.83563 5.24912,-3.39787 1.51533,-1.56223 2.72606,-3.58532 3.6322,-6.06928 0.90605,-2.48395 1.3591,-5.50687 1.35914,-9.06879 -4e-5,-4.18676 -0.51558,-7.70179 -1.54661,-10.54509 -1.03112,-2.84324 -2.35902,-5.13191 -3.9837,-6.86603 -1.62477,-1.73404 -3.44477,-2.96821 -5.46002,-3.7025 -2.01531,-0.73421 -4.02279,-1.10133 -6.02242,-1.10138 z"
           style=""
           id="path3144" />
        <path
           d="m 338.62675,589.67154 c -2e-5,0.74988 0.0312,1.38258 0.0937,1.89811 0.0625,0.51555 0.28119,0.94516 0.65614,1.28885 0.37492,0.34369 0.96076,0.60146 1.75752,0.77331 0.79672,0.17184 1.92934,0.27339 3.39786,0.30463 l 0,1.68722 c -1.49977,0 -3.03076,-0.0156 -4.59298,-0.0469 -1.56225,-0.0312 -3.09324,-0.0469 -4.59297,-0.0469 -0.59366,0 -1.2498,0.008 -1.96842,0.0234 -0.71863,0.0156 -1.43726,0.0234 -2.15588,0.0234 -0.68739,0 -1.34353,0.008 -1.96842,0.0234 -0.6249,0.0156 -1.15606,0.0234 -1.59348,0.0234 l -0.0937,-1.59348 c 1.21854,-0.0937 2.19494,-0.24215 2.9292,-0.44524 0.73424,-0.20309 1.30446,-0.51554 1.71065,-0.93734 0.40617,-0.4218 0.67956,-0.99983 0.82017,-1.73409 0.14059,-0.73424 0.21089,-1.69501 0.2109,-2.88232 l 0,-31.54155 c -1e-5,-0.74983 -0.0625,-1.37473 -0.18747,-1.87468 -0.12498,-0.49988 -0.38275,-0.91387 -0.7733,-1.24198 -0.39057,-0.32803 -0.97641,-0.57018 -1.75752,-0.72644 -0.78112,-0.15618 -1.82782,-0.26554 -3.14009,-0.32807 l 0.0937,-1.68722 c 0.49991,5e-5 1.08575,0.008 1.75752,0.0234 0.67175,0.0157 1.39819,0.0235 2.17931,0.0234 0.78112,5e-5 1.57785,0.008 2.39023,0.0234 0.81235,0.0157 1.59347,0.0235 2.34335,0.0234 1.24978,4e-5 2.50738,-0.0859 3.7728,-0.25777 1.2654,-0.1718 2.55424,-0.25773 3.86654,-0.25777 1.87466,4e-5 3.74934,0.15627 5.62405,0.46867 1.87465,0.31249 3.56968,0.8749 5.08508,1.68722 1.51533,0.8124 2.74169,1.91378 3.67906,3.30413 0.93731,1.39042 1.40598,3.16356 1.40601,5.31941 -3e-5,1.43729 -0.22655,2.79643 -0.67957,4.07744 -0.45308,1.28106 -1.08579,2.44492 -1.89812,3.49159 -0.81239,1.04673 -1.77316,1.96845 -2.88232,2.76516 -1.10922,0.79677 -2.33557,1.44509 -3.67907,1.94499 0.99981,1.90595 1.98401,3.73376 2.95263,5.48345 0.96856,1.74972 1.86684,3.35101 2.69486,4.80387 0.82795,1.45289 1.57782,2.72611 2.24962,3.81967 0.67172,1.09357 1.22632,1.9528 1.66378,2.57769 0.59361,0.81237 1.10915,1.46069 1.54661,1.94498 0.43739,0.4843 0.91387,0.85924 1.42945,1.12481 0.5155,0.26559 1.11696,0.46087 1.80438,0.58584 0.68734,0.12498 1.57782,0.23434 2.67142,0.32807 l -0.0937,1.68722 c -0.93738,0 -2.16374,-0.0156 -3.67907,-0.0469 -1.5154,-0.0312 -2.97609,-0.0469 -4.38207,-0.0469 -0.43746,0 -0.91394,0.008 -1.42944,0.0234 -0.51558,0.0156 -0.99206,0.039 -1.42945,0.0703 -0.31248,-0.65614 -0.79677,-1.61692 -1.45288,-2.88233 -0.65617,-1.26541 -1.43729,-2.73391 -2.34335,-4.4055 -0.90613,-1.67159 -1.90596,-3.49159 -2.9995,-5.46002 -1.09359,-1.9684 -2.23402,-3.96806 -3.4213,-5.99899 -0.18749,-0.31243 -0.36714,-0.59363 -0.53897,-0.84361 -0.17186,-0.24993 -0.39058,-0.46083 -0.65614,-0.6327 -0.2656,-0.17183 -0.6171,-0.30462 -1.05451,-0.39837 -0.43744,-0.0937 -1.01547,-0.14058 -1.73408,-0.1406 l -1.40601,0 c -0.24997,2e-5 -0.55461,-0.008 -0.91391,-0.0234 -0.35933,-0.0156 -0.78894,-0.039 -1.28884,-0.0703 z m 0,-17.15336 c 0.24994,0.0313 0.4999,0.0547 0.74987,0.0703 0.24994,0.0157 0.4999,0.0235 0.74987,0.0234 l 1.49975,0 c 3.68686,2e-5 6.53793,-0.84359 8.55324,-2.53083 2.01526,-1.68718 3.0229,-4.42109 3.02293,-8.20174 -3e-5,-3.18692 -0.9608,-5.51465 -2.88233,-6.98319 -1.92157,-1.46846 -4.47582,-2.20271 -7.66276,-2.20275 -0.96861,4e-5 -1.72629,0.086 -2.27306,0.25776 -0.5468,0.17189 -0.94517,0.42966 -1.19511,0.77331 -0.24997,0.34373 -0.40619,0.76554 -0.46867,1.26541 -0.0625,0.49996 -0.0937,1.06236 -0.0937,1.68722 z"
           style=""
           id="path3146" />
        <path
           d="m 381.55701,587.98432 c -10e-6,1.06233 0.0703,1.93718 0.21091,2.62456 0.14058,0.68739 0.42178,1.22636 0.8436,1.61691 0.42179,0.39057 1.01544,0.66396 1.78095,0.82018 0.76548,0.15622 1.78874,0.23434 3.0698,0.23433 l 3.42129,0 c 1.81217,10e-6 3.28848,-0.14841 4.42894,-0.44523 1.14041,-0.29683 2.10118,-0.79674 2.88233,-1.49975 0.78109,-0.703 1.47628,-1.63253 2.08558,-2.78859 0.60924,-1.15605 1.27319,-2.57768 1.99186,-4.26491 l 1.82781,0.42181 c -0.24999,0.9061 -0.48433,1.87469 -0.703,2.90576 -0.21875,1.03108 -0.42184,2.04653 -0.60928,3.04636 -0.1875,0.99983 -0.34372,1.93717 -0.46867,2.81202 -0.12501,0.87485 -0.20312,1.59348 -0.23433,2.15589 -6.21773,0 -11.25594,-0.0156 -15.11464,-0.0469 -3.85874,-0.0312 -6.74106,-0.0469 -8.64698,-0.0469 -0.56241,0 -1.22636,0.008 -1.99185,0.0234 -0.7655,0.0156 -1.55443,0.0234 -2.36678,0.0234 -0.81237,0 -1.6013,0.008 -2.36679,0.0234 -0.7655,0.0156 -1.41383,0.0234 -1.94499,0.0234 l -0.1406,-1.59348 c 1.43726,-0.0937 2.59331,-0.24215 3.46817,-0.44524 0.87484,-0.20309 1.5466,-0.51554 2.01528,-0.93734 0.46866,-0.4218 0.78111,-0.99983 0.93734,-1.73409 0.15622,-0.73424 0.23433,-1.69501 0.23434,-2.88232 l 0,-31.54155 c -1e-5,-0.74983 -0.0703,-1.37473 -0.2109,-1.87468 -0.14061,-0.49988 -0.42182,-0.91387 -0.84361,-1.24198 -0.42181,-0.32803 -1.03108,-0.57018 -1.82782,-0.72644 -0.79674,-0.15618 -1.86687,-0.26554 -3.21039,-0.32807 l 0.1406,-1.68722 c 0.59364,5e-5 1.27322,0.008 2.03872,0.0234 0.76549,0.0157 1.53879,0.0235 2.31992,0.0234 0.81235,5e-5 1.60128,0.008 2.36679,0.0234 0.76548,0.0157 1.4763,0.0235 2.13245,0.0234 1.21853,4e-5 3.78059,-0.0156 7.6862,-0.0469 3.90557,-0.0312 8.87347,-0.0468 14.90373,-0.0469 -0.1875,1.59353 -0.3281,3.26512 -0.4218,5.01478 -0.0938,1.74974 -0.15626,3.6088 -0.18747,5.57719 l -1.87468,0.0469 c -0.28124,-1.62469 -0.59368,-2.96821 -0.93734,-4.03057 -0.34373,-1.06228 -0.82802,-1.9137 -1.45288,-2.55425 -0.62493,-0.64048 -1.43729,-1.09353 -2.43709,-1.35915 -0.99986,-0.26554 -2.29651,-0.39833 -3.88997,-0.39837 l -6.70199,0 c -0.93736,4e-5 -1.53882,0.0938 -1.80439,0.2812 -0.26559,0.18751 -0.39838,0.67181 -0.39837,1.45288 l 0,16.21602 15.84108,-0.46868 0.32807,0.32807 -0.0937,3.88997 c -2.84329,-0.24993 -5.6475,-0.42178 -8.41264,-0.51554 -2.76517,-0.0937 -5.31943,-0.17182 -7.66277,-0.23433 z"
           style=""
           id="path3148" />
      </g>
    </g>
  </g>
</svg>
